<svg xmlns="http://www.w3.org/2000/svg" viewBox="0 0 181.69 75.34"><defs><style>.cls-1,.cls-3{fill:#fff}.cls-1,.cls-4{stroke:#4d3224;stroke-linecap:round;stroke-linejoin:round}.cls-1{stroke-width:1.69px}.cls-2{fill:#e9e9e7;opacity:.5}.cls-4{fill:#d75968;stroke-width:1.4px}</style></defs><title>logo-bg</title><g id="圖層_2" data-name="圖層 2"><g id="首頁"><path class="cls-1" d="M7.82 22.92.84 74.5 46.08 67.73 89.61 74.16 133.63 68.35 177.05 74.02 180.84 23.36l-41.53-7.5L93.95 21.75 50.33 14.37 7.82 22.92z"/><path class="cls-2" d="M50.33 15.16 46.08 66.95 89.61 73.38 93.95 22.54 50.33 15.16z"/><path class="cls-2" d="M139.31 16.65l41.03 7.5L176.3 73.53 133.63 67.56 139.31 15.86"/><circle class="cls-3" cx="14.76" cy="13.91" r="8.67"/><path class="cls-4" d="M27.63 15.28C27.3-3.1.5-5.2.87 15.28 1 24.93 14.13 35.73 14.13 35.73S27.8 24.93 27.63 15.28zm-14.47 5.5a6.62 6.62.0 0 1-5-7.49 5.75 5.75.0 0 1 7.06-4.68 6.63 6.63.0 0 1 5 7.49A5.74 5.74.0 0 1 13.16 20.78z"/></g></g></svg>