<svg xmlns="http://www.w3.org/2000/svg" viewBox="0 0 154.58 29.07"><defs><style>.cls-1{fill:#4d3224}</style></defs><title>logo-text</title><g id="圖層_2" data-name="圖層 2"><g id="首頁"><path class="cls-1" d="M15.1 23.26l2-13.93L11.26 23.26H7l.62-14-5.18 14H0L7.84 2A7.14 7.14.0 0 0 4.22 4.5a7.23 7.23.0 0 0-1.3 4.43A4.64 4.64.0 0 0 3 9.84c0 .24.08.44.12.59a1.92 1.92.0 0 0 .14.39 2.15 2.15.0 0 1 .11.25A4 4 0 0 1 1 10.43 2.42 2.42.0 0 1 .06 8.28a5.78 5.78.0 0 1 .88-3A10.16 10.16.0 0 1 3.2 2.64 11.63 11.63.0 0 1 6.34.73 9 9 0 0 1 9.83.0a6.78 6.78.0 0 1 2.42.43l-.72 16.34L18.36.43h4.46L19.57 23.26zM34.31 11.63l-1.7 7.9a3.47 3.47.0 0 0-.09.75.83.83.0 0 0 .23.67 1.13 1.13.0 0 0 .72.19 1.43 1.43.0 0 0 1.15-.58 4.06 4.06.0 0 0 .74-1.47h1a8.12 8.12.0 0 1-1.1 2.25A5.11 5.11.0 0 1 34 22.59a3.36 3.36.0 0 1-1.24.55 5.63 5.63.0 0 1-1.07.12 2.25 2.25.0 0 1-1.55-.52 2.33 2.33.0 0 1-.73-1.51 5.41 5.41.0 0 1-.61.79 4.24 4.24.0 0 1-.77.7 4.07 4.07.0 0 1-.95.49 3.64 3.64.0 0 1-2.29.0 2.8 2.8.0 0 1-1-.64 3.18 3.18.0 0 1-.69-1.15 5.27 5.27.0 0 1-.26-1.76A10.56 10.56.0 0 1 23 18a11.06 11.06.0 0 1 .49-1.81 10.33 10.33.0 0 1 .82-1.75 6.44 6.44.0 0 1 1.16-1.47 5.39 5.39.0 0 1 1.5-1 4.29 4.29.0 0 1 1.85-.39 4.18 4.18.0 0 1 .59.0 1.61 1.61.0 0 1 .58.16 1.29 1.29.0 0 1 .47.37 1.33 1.33.0 0 1 .26.64l.24-1.09zM29.54 13a1.79 1.79.0 0 0-1.35.69 6.2 6.2.0 0 0-1 1.67 10.92 10.92.0 0 0-.65 2.1 9 9 0 0 0-.23 1.92 3.45 3.45.0 0 0 .12 1 1.37 1.37.0 0 0 .31.53.64.64.0 0 0 .37.21 1.59 1.59.0 0 0 .36.0A1.33 1.33.0 0 0 28 21a1.92 1.92.0 0 0 .56-.38 2.47 2.47.0 0 0 .49-.64 3.66 3.66.0 0 0 .33-.9l1.12-5.25a.74.74.0 0 0-.06-.25 1.22 1.22.0 0 0-.17-.29 1.05 1.05.0 0 0-.27-.24A.89.89.0 0 0 29.54 13zm12.51 1.89c0-.79-.28-1.19-.83-1.19a1.35 1.35.0 0 0-1.1.63 4.7 4.7.0 0 0-.72 1.51l-1.58 7.47H34.47l2.47-11.63h3.35L40 12.84a3.41 3.41.0 0 1 1.47-1.07 4 4 0 0 1 1.25-.24 2.79 2.79.0 0 1 1.85.62 2.48 2.48.0 0 1 .73 2 8.23 8.23.0 0 1-.17 1.55c-.12.56-.25 1.12-.39 1.67s-.26 1.07-.38 1.56a5.25 5.25.0 0 0-.17 1.22 1.17 1.17.0 0 0 .19.71.86.86.0 0 0 .74.27 1.45 1.45.0 0 0 .66-.15 1.68 1.68.0 0 0 .51-.42 3.53 3.53.0 0 0 .41-.64c.12-.25.25-.53.37-.84h1a10.35 10.35.0 0 1-1 2.29 4.93 4.93.0 0 1-1.14 1.29 3.24 3.24.0 0 1-1.13.59 4.18 4.18.0 0 1-1 .13 3.28 3.28.0 0 1-1.29-.22 2.2 2.2.0 0 1-.85-.59 2.14 2.14.0 0 1-.46-.85 3.19 3.19.0 0 1-.14-1 7 7 0 0 1 .16-1.39c.11-.53.23-1.07.36-1.61s.25-1.08.36-1.6A6.52 6.52.0 0 0 42.05 14.84zM59.26 7 56.59 19.53a3.52 3.52.0 0 0-.1.75.8.8.0 0 0 .24.67 1.09 1.09.0 0 0 .72.19 1.43 1.43.0 0 0 1.15-.58 4.05 4.05.0 0 0 .73-1.47h1a8.4 8.4.0 0 1-1.11 2.25A5.27 5.27.0 0 1 58 22.59a3.4 3.4.0 0 1-1.25.55 5.55 5.55.0 0 1-1.07.12 2.23 2.23.0 0 1-1.54-.52 2.34 2.34.0 0 1-.74-1.51 6.1 6.1.0 0 1-.6.79A4.21 4.21.0 0 1 51 23.21a3.64 3.64.0 0 1-2.29.0 2.64 2.64.0 0 1-1-.64 3.19 3.19.0 0 1-.7-1.15 5.29 5.29.0 0 1-.25-1.76A9.53 9.53.0 0 1 47 18a11.06 11.06.0 0 1 .49-1.81 10.28 10.28.0 0 1 .81-1.75 6.72 6.72.0 0 1 1.16-1.47 5.39 5.39.0 0 1 1.5-1 4.29 4.29.0 0 1 1.85-.39 4.22 4.22.0 0 1 .6.0 1.72 1.72.0 0 1 .59.16 1.32 1.32.0 0 1 .48.37 1.23 1.23.0 0 1 .24.66l1.14-5.3zm-5.74 6a1.76 1.76.0 0 0-1.35.69 6 6 0 0 0-1 1.67 11.69 11.69.0 0 0-.66 2.1 9.74 9.74.0 0 0-.23 1.92 3.11 3.11.0 0 0 .13 1 1.37 1.37.0 0 0 .3.53.67.67.0 0 0 .37.21 1.71 1.71.0 0 0 .36.0A1.29 1.29.0 0 0 52 21a2.1 2.1.0 0 0 .57-.38A2.47 2.47.0 0 0 53 20a3.29 3.29.0 0 0 .32-.9l1.12-5.23a1.15 1.15.0 0 0-.2-.56A.79.79.0 0 0 53.52 13zm10.74-1.32-1.67 7.9a2.27 2.27.0 0 0-.07.59 1.64 1.64.0 0 0 .15.71.56.56.0 0 0 .54.31 1.4 1.4.0 0 0 1.14-.58 4.4 4.4.0 0 0 .73-1.47l1.58-7.46H70L67.19 25.12a6.16 6.16.0 0 1-.73 2 4.36 4.36.0 0 1-1.07 1.2 3.58 3.58.0 0 1-1.22.58 5.2 5.2.0 0 1-1.21.15 2.88 2.88.0 0 1-1-.18 2.51 2.51.0 0 1-.88-.51 2.54 2.54.0 0 1-.61-.8 2.18 2.18.0 0 1-.23-1 2.72 2.72.0 0 1 .31-1.37 2.79 2.79.0 0 1 .86-1 5.68 5.68.0 0 1 1.28-.65c.49-.18 1-.35 1.57-.52l.23-1A3.5 3.5.0 0 1 63 23.15a4.38 4.38.0 0 1-1.35.24 2.52 2.52.0 0 1-1.76-.66 2.73 2.73.0 0 1-.72-2.13 7.83 7.83.0 0 1 .18-1.51l1.58-7.46zm-2.77 14.6a.72.72.0 0 0 .27.51.93.93.0 0 0 .66.26 1.15 1.15.0 0 0 .75-.38 3 3 0 0 0 .63-1.43l.27-1.38a9.84 9.84.0 0 0-1 .41 4 4 0 0 0-.81.51 2.42 2.42.0 0 0-.55.66A1.8 1.8.0 0 0 61.49 26.23z"/><path class="cls-1" d="M83.49 2.91l-2.2 10.36a4.09 4.09.0 0 0 2.17-.82 7.17 7.17.0 0 0 1.72-1.83 9 9 0 0 0 1.14-2.45 9.52 9.52.0 0 0 .4-2.65A6.1 6.1.0 0 0 86.52 4a3.32 3.32.0 0 0-.69-1.3 3.26 3.26.0 0 0-1.33-.9 5.92 5.92.0 0 0-2.17-.34 8.48 8.48.0 0 0-2.89.49 7 7 0 0 0-2.39 1.44 6.82 6.82.0 0 0-1.63 2.36 8 8 0 0 0-.61 3.21 7.87 7.87.0 0 0 0 1 3.24 3.24.0 0 0 .12.58 1 1 0 0 0 .15.36l.15.25a4.06 4.06.0 0 1-2.44-.64A2.53 2.53.0 0 1 72 8.22a5.72 5.72.0 0 1 1-3.14 9.8 9.8.0 0 1 2.53-2.62A13.07 13.07.0 0 1 79 .67 12.6 12.6.0 0 1 83 0a8.74 8.74.0 0 1 3.13.51 6.6 6.6.0 0 1 2.22 1.35 5.36 5.36.0 0 1 1.32 2 6.38 6.38.0 0 1 .43 2.33 7.56 7.56.0 0 1-.62 2.93 9 9 0 0 1-1.77 2.67 8.87 8.87.0 0 1-2.83 1.93 9.11 9.11.0 0 1-3.76.75H81l-1.89 8.84H74.66L78.89 3.53zm11.81 8.6q2.92.0 3 3.65a.81.81.0 0 0 .25.0 3.49 3.49.0 0 0 .87-.12 7.14 7.14.0 0 0 1-.31 10 10 0 0 0 .93-.46c.3-.17.57-.34.82-.51l.21.63a5.51 5.51.0 0 1-1.75 1.22 9.24 9.24.0 0 1-2.34.71 10.78 10.78.0 0 1-.63 2.93 7.62 7.62.0 0 1-1.23 2.22 5.39 5.39.0 0 1-1.7 1.41 4.42 4.42.0 0 1-2 .48 5.5 5.5.0 0 1-1.5-.19A3 3 0 0 1 90 22.56a3.08 3.08.0 0 1-.76-1.14 4.52 4.52.0 0 1-.28-1.7 8.86 8.86.0 0 1 .14-1.53 10.32 10.32.0 0 1 .45-1.78 11 11 0 0 1 .8-1.79 6.88 6.88.0 0 1 1.2-1.57 5.49 5.49.0 0 1 1.64-1.12A5.14 5.14.0 0 1 95.3 11.51zm-1.72 9.7a1.34 1.34.0 0 0 .85-.36 3.8 3.8.0 0 0 .79-1 8.69 8.69.0 0 0 .64-1.52 13.09 13.09.0 0 0 .42-1.91.68.68.0 0 1-.5-.36 1.38 1.38.0 0 1-.13-.62 1.42 1.42.0 0 1 .2-.8 1 1 0 0 1 .52-.43 2 2 0 0 0-.25-1 .7.7.0 0 0-.64-.29 1.57 1.57.0 0 0-1.18.68 7.08 7.08.0 0 0-1 1.68 12.45 12.45.0 0 0-.67 2.09 8.9 8.9.0 0 0-.26 2 6 6 0 0 0 .06.94 1.52 1.52.0 0 0 .2.57.71.71.0 0 0 .37.29A1.84 1.84.0 0 0 93.58 21.21zm10.81-9.58-.32 1.46a9 9 0 0 1 1.4-1.11 2.69 2.69.0 0 1 1.43-.47 1.41 1.41.0 0 1 1.2.54 1.94 1.94.0 0 1 .41 1.21 1.81 1.81.0 0 1-.11.6 1.77 1.77.0 0 1-.31.55 1.58 1.58.0 0 1-.52.39 1.72 1.72.0 0 1-.74.15.78.78.0 0 1-.66-.23 1.22 1.22.0 0 1-.24-.5c-.05-.18-.09-.34-.13-.5a.3.3.0 0 0-.32-.23 1.49 1.49.0 0 0-.83.25 6.5 6.5.0 0 0-.86.68l-1.86 8.84H98.58L101 11.63zM113.93 8l-.79 3.68h1.39l-.18.93H113l-1.49 7a3.47 3.47.0 0 0-.09.75.83.83.0 0 0 .23.67 1.13 1.13.0 0 0 .72.19 1.76 1.76.0 0 0 1.26-.58 3.44 3.44.0 0 0 .84-1.47h1a7.74 7.74.0 0 1-1.14 2.27 5.55 5.55.0 0 1-1.32 1.3 4.05 4.05.0 0 1-1.32.6 5.33 5.33.0 0 1-1.1.13 2.52 2.52.0 0 1-1.77-.66A2.77 2.77.0 0 1 108 20.6a7.2 7.2.0 0 1 .19-1.51l1.39-6.53h-.77l.19-.93h.77l.69-3.21zm8.28 1.35c0-.12.0-.23.0-.32s0-.2.0-.31a.68.68.0 0 0-.27-.59 1 1 0 0 0-.61-.2A1.14 1.14.0 0 0 121 8a1.34 1.34.0 0 0-.47.29 2.36 2.36.0 0 0-.43.58 3.52 3.52.0 0 0-.31.95l-.4 1.84H121l-.16.93h-1.72l-2.68 12.56a6.4 6.4.0 0 1-.72 2 4.29 4.29.0 0 1-1 1.2 3.5 3.5.0 0 1-1.2.58 5.06 5.06.0 0 1-1.2.15 2.88 2.88.0 0 1-1-.18 2.38 2.38.0 0 1-.87-.51 2.57 2.57.0 0 1-.62-.8 2.31 2.31.0 0 1-.23-1 2.7 2.7.0 0 1 .31-1.35 2.86 2.86.0 0 1 .86-.94A6.08 6.08.0 0 1 112 23.6c.48-.18 1-.36 1.56-.53l2.81-13.28a6.3 6.3.0 0 1 .73-2 4.36 4.36.0 0 1 1.07-1.2A3.49 3.49.0 0 1 119.41 6a5.27 5.27.0 0 1 1.21-.15 3 3 0 0 1 1 .17 2.93 2.93.0 0 1 .87.51 2.73 2.73.0 0 1 .62.81 2.31 2.31.0 0 1 .23 1 6.59 6.59.0 0 1-.07 1zM110.86 26.23a.74.74.0 0 0 .26.51.94.94.0 0 0 .67.26 1 1 0 0 0 .73-.38 3.18 3.18.0 0 0 .59-1.43l.31-1.35a9.25 9.25.0 0 0-1 .4 4.06 4.06.0 0 0-.8.5 2.37 2.37.0 0 0-.54.65A1.79 1.79.0 0 0 110.86 26.23zm15.81-14.72c2 0 3 1.22 3 3.65a.81.81.0 0 0 .25.0 3.63 3.63.0 0 0 .88-.12 7.5 7.5.0 0 0 .95-.31 10 10 0 0 0 .93-.46c.3-.17.58-.34.82-.51l.21.63a5.51 5.51.0 0 1-1.75 1.22 9.24 9.24.0 0 1-2.34.71 10.78 10.78.0 0 1-.63 2.93 7.62 7.62.0 0 1-1.23 2.22 5.39 5.39.0 0 1-1.7 1.41 4.42 4.42.0 0 1-2 .48 5.5 5.5.0 0 1-1.5-.19 2.89 2.89.0 0 1-1.17-.64 3 3 0 0 1-.77-1.14 4.52 4.52.0 0 1-.28-1.7 8.86 8.86.0 0 1 .14-1.53 10.32 10.32.0 0 1 .45-1.78 11 11 0 0 1 .8-1.79 6.88 6.88.0 0 1 1.2-1.57 5.49 5.49.0 0 1 1.64-1.12A5.14 5.14.0 0 1 126.67 11.51zM125 21.21a1.34 1.34.0 0 0 .85-.36 3.6 3.6.0 0 0 .79-1 8.69 8.69.0 0 0 .64-1.52 13.09 13.09.0 0 0 .42-1.91.68.68.0 0 1-.5-.36 1.38 1.38.0 0 1-.13-.62 1.51 1.51.0 0 1 .2-.8 1 1 0 0 1 .52-.43 2.14 2.14.0 0 0-.24-1 .72.72.0 0 0-.64-.29 1.57 1.57.0 0 0-1.19.68 7.08 7.08.0 0 0-1 1.68 12.45 12.45.0 0 0-.67 2.09 8.9 8.9.0 0 0-.26 2 6 6 0 0 0 .06.94 1.52 1.52.0 0 0 .2.57.76.76.0 0 0 .37.29A1.84 1.84.0 0 0 125 21.21zM136.76 7l-2.67 12.55a3.47 3.47.0 0 0-.09.75.8.8.0 0 0 .23.67 1.09 1.09.0 0 0 .72.19 1.72 1.72.0 0 0 1.25-.58 3.34 3.34.0 0 0 .84-1.47h1a8.26 8.26.0 0 1-1.14 2.27 5.77 5.77.0 0 1-1.33 1.3 4 4 0 0 1-1.31.6 5.49 5.49.0 0 1-1.11.13 2.52 2.52.0 0 1-1.76-.66 2.77 2.77.0 0 1-.72-2.13 7.83 7.83.0 0 1 .18-1.51l2.49-11.65zM142 11.63l-1.67 7.9a3.52 3.52.0 0 0-.1.75.8.8.0 0 0 .24.67 1.09 1.09.0 0 0 .72.19 1.72 1.72.0 0 0 1.25-.58 3.34 3.34.0 0 0 .84-1.47h1a8.26 8.26.0 0 1-1.14 2.27 5.77 5.77.0 0 1-1.33 1.3 4 4 0 0 1-1.31.6 5.49 5.49.0 0 1-1.11.13 2.52 2.52.0 0 1-1.76-.66 2.77 2.77.0 0 1-.72-2.13 7.83 7.83.0 0 1 .18-1.51l1.58-7.46zm-2.88-3.1a1.84 1.84.0 0 1 .53-1.31 1.78 1.78.0 0 1 1.31-.55 1.88 1.88.0 0 1 1.86 1.86 1.78 1.78.0 0 1-.55 1.31 1.84 1.84.0 0 1-1.31.53 1.81 1.81.0 0 1-1.84-1.84zm10.21 3q2.7.0 2.95 3.05a1.4 1.4.0 0 0 .54-.28 2.79 2.79.0 0 0 .45-.46c.13-.16.25-.32.35-.47s.18-.29.24-.4h.75a17.72 17.72.0 0 1-.9 1.65 4.11 4.11.0 0 1-1.45 1.45 10.81 10.81.0 0 1-.57 3.05 8.33 8.33.0 0 1-1.22 2.32 5.39 5.39.0 0 1-1.72 1.46 4.43 4.43.0 0 1-2.07.51 5.4 5.4.0 0 1-1.5-.19 3 3 0 0 1-1.18-.64 3.23 3.23.0 0 1-.77-1.14 4.74 4.74.0 0 1-.27-1.7 8.86 8.86.0 0 1 .14-1.53 10.32 10.32.0 0 1 .45-1.78 11 11 0 0 1 .8-1.79 6.88 6.88.0 0 1 1.2-1.57 5.49 5.49.0 0 1 1.64-1.12A5.14 5.14.0 0 1 149.3 11.51zm-1.72 9.7a1.34 1.34.0 0 0 .85-.36 3.8 3.8.0 0 0 .79-1 8.57 8.57.0 0 0 .64-1.51 11.56 11.56.0 0 0 .41-1.9c-.41-.11-.62-.46-.62-1.07a1.51 1.51.0 0 1 .19-.8 1.05 1.05.0 0 1 .53-.43 1.91 1.91.0 0 0-.25-1 .71.71.0 0 0-.64-.28 1.55 1.55.0 0 0-1.18.68 7.08 7.08.0 0 0-1 1.68 12.45 12.45.0 0 0-.67 2.09 8.9 8.9.0 0 0-.26 2 6 6 0 0 0 .06.94 1.36 1.36.0 0 0 .2.57.71.71.0 0 0 .37.29A1.79 1.79.0 0 0 147.58 21.21z"/></g></g></svg>