<svg xmlns="http://www.w3.org/2000/svg" viewBox="0 0 67.17 67.17"><defs><style>.cls-1{fill:#fff}.cls-2{fill:#4d3224}</style></defs><title>menu</title><g id="圖層_2" data-name="圖層 2"><g id="首頁"><path class="cls-1" d="M62.02 66.08H1.08l4.07-65H66.08L62.02 66.08z"/><path class="cls-2" d="M66.87.34A1.07 1.07.0 0 0 66.08.0H5.15A1.09 1.09.0 0 0 4.06 1L0 66a1.11 1.11.0 0 0 .29.81 1.12 1.12.0 0 0 .79.34H62a1.08 1.08.0 0 0 1.08-1l4.06-65A1.06 1.06.0 0 0 66.87.34zM62.16 46.42H33.91L34 44.25H32l-.09 2.17H3.4L4.73 25.08H6.92v-2H4.86L6.16 2.17H33.83l-.08 1.75h2l.08-1.75h29.1L63.52 24.75H61.25v2h2.14z"/><path class="cls-1" d="M17.61 58.89 18 50.46a3.45 3.45.0 0 0-1.24-.23 4.74 4.74.0 0 0-1.81.38 6.31 6.31.0 0 0-1.62 1A5.61 5.61.0 0 0 12.15 53a3 3 0 0 0-.45 1.54 1.26 1.26.0 0 0 .46 1.11 2.08 2.08.0 0 0 1.23.33.49.49.0 0 0-.06-.13c0-.06-.05-.12-.07-.2s0-.18-.06-.31a3 3 0 0 1 0-.47 3.52 3.52.0 0 1 2.54-3.6l-4.05 11h1.27L15.6 55l-.32 7.21h2.19l3-7.18-1 7.18h2.31l1.68-11.77H21.13z"/><path class="cls-1" d="M30.81 60a3.41 3.41.0 0 1-.64.51 3 3 0 0 1-.72.35 2.83 2.83.0 0 1-.86.13 1.22 1.22.0 0 1-.86-.27 1.42 1.42.0 0 1-.29-1.08c0-.09.0-.19.0-.3s0-.22.0-.34a4.33 4.33.0 0 0 1.38-.31A4.28 4.28.0 0 0 30 58a3.4 3.4.0 0 0 .81-1 2.72 2.72.0 0 0 .3-1.26 2.25 2.25.0 0 0-.07-.58 1.15 1.15.0 0 0-.27-.48 1.33 1.33.0 0 0-.54-.35 2.68 2.68.0 0 0-.88-.13 3.51 3.51.0 0 0-1.45.29 3.67 3.67.0 0 0-1.12.77A5.13 5.13.0 0 0 26 56.29a6.83 6.83.0 0 0-.53 1.22 7.47 7.47.0 0 0-.3 1.22 7.22 7.22.0 0 0-.1 1.06 2.46 2.46.0 0 0 .69 2 2.72 2.72.0 0 0 1.83.59A3.78 3.78.0 0 0 29 62.07a4.69 4.69.0 0 0 1.2-.67 6.23 6.23.0 0 0 1-.94A9.82 9.82.0 0 0 32 59.37h-.55C31.22 59.59 31 59.8 30.81 60zm-2.9-2.93a6.52 6.52.0 0 1 .46-1 3.73 3.73.0 0 1 .54-.74A.84.84.0 0 1 29.5 55a.31.31.0 0 1 .31.17 1.08 1.08.0 0 1 .09.48 2.48 2.48.0 0 1-.18.93 2.53 2.53.0 0 1-.51.81 2.76 2.76.0 0 1-.74.57 2.16 2.16.0 0 1-.89.25A11.77 11.77.0 0 1 27.91 57.07z"/><path class="cls-1" d="M40.83 60a3 3 0 0 1-.28.44 1 1 0 0 1-.35.28 1 1 0 0 1-.46.11.57.57.0 0 1-.5-.19.78.78.0 0 1-.14-.48 3.67 3.67.0 0 1 .12-.84q.12-.51.27-1.08c.09-.37.18-.76.26-1.15A5.29 5.29.0 0 0 39.87 56a1.76 1.76.0 0 0-.5-1.39 1.93 1.93.0 0 0-1.28-.42 2.78 2.78.0 0 0-.86.16 2.39 2.39.0 0 0-1 .74l.18-.84H34.09l-1.69 8h2.3l1.09-5.13a3.14 3.14.0 0 1 .5-1 .91.91.0 0 1 .75-.43q.57.0.57.81a4.22 4.22.0 0 1-.11.92c-.07.36-.16.72-.25 1.1s-.17.74-.24 1.11a4.63 4.63.0 0 0-.12 1 2.53 2.53.0 0 0 .1.67 1.44 1.44.0 0 0 .32.58 1.56 1.56.0 0 0 .58.41 2.33 2.33.0 0 0 .89.15 2.57 2.57.0 0 0 .7-.1 2 2 0 0 0 .77-.4A3.47 3.47.0 0 0 41 61a7.66 7.66.0 0 0 .72-1.58h-.67C41 59.58 40.92 59.78 40.83 60z"/><path class="cls-1" d="M49.47 60.78a.79.79.0 0 1-.5-.13.58.58.0 0 1-.16-.46 2 2 0 0 1 .07-.52L50 54.23h-2.3l-1.09 5.14a2.81 2.81.0 0 1-.5 1 1 1 0 0 1-.78.4.38.38.0 0 1-.38-.22 1.07 1.07.0 0 1-.1-.49 1.37 1.37.0 0 1 0-.4l1.15-5.44H43.77l-1.08 5.14a4.89 4.89.0 0 0-.13 1 1.89 1.89.0 0 0 .49 1.46 1.72 1.72.0 0 0 1.22.46 2.62 2.62.0 0 0 .54-.06 1.8 1.8.0 0 0 .6-.21A2.8 2.8.0 0 0 46 61.6a3.55 3.55.0 0 0 .61-.79 1.85 1.85.0 0 0 .49 1.12 1.46 1.46.0 0 0 1.08.4 2 2 0 0 0 1.19-.39A1.65 1.65.0 0 0 50 60.68l-.21.07A1.17 1.17.0 0 1 49.47 60.78z"/></g></g></svg>