<svg xmlns="http://www.w3.org/2000/svg" viewBox="0 0 180 149.89"><defs><style>.cls-1{fill:#d1e7ff}.cls-2{fill:#b1d0e3;opacity:.44}</style></defs><title>menu-cloud-down</title><g id="圖層_2" data-name="圖層 2"><g id="menu"><path class="cls-1" d="M180 0s-42.72 26.63-32.62 89c0 0-17.87 1.52-20.2 20.54.0.0-27.18-8.37-37.28 19.78.0.0-20.2-34.23-59.81-21.3.0.0-34.95 16.74-29.52 41.85H179.22z"/><path class="cls-2" d="M179.89 149.89 180 17.06c-11 11.26-26.7 35.32-19.91 77.28.0.0-21 5.33-23.31 24.35.0.0-36.5-4.56-46.6 23.59-10.37-19.71-37.46-34.58-58.59-22a52.13 52.13.0 0 0-23 29.15z"/></g></g></svg>