<svg xmlns="http://www.w3.org/2000/svg" viewBox="0 0 126.89 199.19"><defs><style>.cls-1,.cls-12,.cls-24,.cls-27{fill:none}.cls-1,.cls-12,.cls-13,.cls-14,.cls-15,.cls-19,.cls-21,.cls-22,.cls-24,.cls-25,.cls-27,.cls-28,.cls-5,.cls-6,.cls-7,.cls-9{stroke:#4d3224}.cls-1,.cls-12,.cls-13,.cls-15,.cls-19,.cls-21,.cls-22,.cls-24,.cls-25,.cls-27,.cls-28,.cls-5,.cls-6,.cls-7,.cls-9{stroke-linecap:round;stroke-linejoin:round}.cls-1{stroke-width:.48px}.cls-2{fill:#af7d5a}.cls-3{fill:#735b4a}.cls-4{fill:#426ad3}.cls-5{fill:#f2f2f3}.cls-12,.cls-5,.cls-6,.cls-7,.cls-9{stroke-width:1.34px}.cls-6{fill:#ec4b68}.cls-7{fill:#c1997e}.cls-8{fill:#ebc1ac}.cls-9{fill:#87bacb}.cls-10{fill:#729dab}.cls-11{fill:#fff;opacity:.24}.cls-13{fill:#bdbdbc}.cls-13,.cls-14,.cls-15,.cls-19,.cls-21,.cls-22,.cls-27,.cls-28{stroke-width:.51px}.cls-14{fill:#bb9a89}.cls-14,.cls-23{stroke-miterlimit:10}.cls-15{fill:#fcdec8}.cls-16{fill:#4d3224}.cls-17{opacity:.2}.cls-18{fill:#d39979}.cls-19{fill:#f3f3f1}.cls-20{opacity:.34}.cls-21{fill:#5c3c2b}.cls-22{fill:#664331}.cls-23,.cls-26{fill:#fffaf7}.cls-23{stroke:#a67b68;stroke-width:.47px}.cls-24{stroke-width:.38px}.cls-25{fill:#da3e4d;stroke-width:.37px}.cls-28{fill:#929090}.cls-29{fill:#ba8e70}.cls-30{fill:#9e795f}.cls-31{fill:#d7bead}</style></defs><title>menu-hitballoon</title><g id="圖層_2" data-name="圖層 2"><g id="menu"><path class="cls-1" d="M40.05 114.06 33.95 153.55z"/><path class="cls-1" d="M86.62 114.27 92.36 153.04z"/><path class="cls-2" d="M57.59 139.5 32.3 154.11v25.12l32.05-12.49h0l30.34 10V154.1l-25.3-14.6A11.79 11.79.0 0 0 57.59 139.5z"/><path class="cls-3" d="M57.59 141.69 32.3 156.3v23.27l33 8.78 9-5.3 20.32-5.48V156.29l-25.3-14.6A11.79 11.79.0 0 0 57.59 141.69z"/><ellipse class="cls-4" cx="63.48" cy="118.72" rx="28.63" ry="13.72"/><path class="cls-5" d="M64 .73C29.1.73 1.27 25.92.68 57A50.14 50.14.0 0 0 5.31 79C10 91.93 30.84 112.66 33 114.79c4.06 6.54 15.73 11.31 30.7 11.31 14.17.0 26.25-4.27 30.94-10.28h.07S125 82.7 126 60.82h0c.12-1.27.21-2.54.24-3.83C126.8 25.92 99 .73 64 .73z"/><path class="cls-6" d="M77 10.14 90.85 7.62a7.31 7.31.0 0 1 4.38.59 46.51 46.51.0 0 1 13.43 9.13 32.34 32.34.0 0 0-26.68.0z"/><path class="cls-6" d="M78 20.23s35.66 14 26.22 50.9-17.12 55-17.12 55l2-.71s29.51-44.26 30.23-66.83c1.1-34.39-32.13-42.73-32.13-42.73z"/><path class="cls-6" d="M46.7 20.23s-32.28 14-22.84 50.9 18.57 55 18.57 55l-4-.71S9 81.12 8.25 58.55C7.15 24.16 40.78 15.34 40.78 15.34z"/><path class="cls-7" d="M92.67 156.13 69.51 169a14.11 14.11.0 0 1-12.11.0L34.32 156.13a3.93 3.93.0 0 1-2-2v26h0a4 4 0 0 0 2 3.5l23 13.31a12.24 12.24.0 0 0 12.25.0l23-13.31a4 4 0 0 0 2-3.5h0V154C94.69 154.44 93.92 155.4 92.67 156.13z"/><path class="cls-1" d="M63.48 125.06V138.14z"/><path class="cls-8" d="M64.73 184.26a11.64 11.64.0 0 1-3.51-.57.48.48.0 1 1 .29-.92 10.33 10.33.0 0 0 3.63.52.47.47.0 0 1 .5.46.48.48.0 0 1-.46.5zm1.86-.19a.48.48.0 0 1-.47-.38.47.47.0 0 1 .37-.57 7.94 7.94.0 0 0 2.53-1l.8-.49a.49.49.0 0 1 .67.15.49.49.0 0 1-.16.67l-.81.49a8.62 8.62.0 0 1-2.83 1.15zM60 183.21a.65.65.0 0 1-.19.0 11 11 0 0 1-1.73-.91l-1.7-1a.48.48.0 0 1-.18-.65.47.47.0 0 1 .66-.18l1.72 1a12 12 0 0 0 1.61.84.49.49.0 0 1-.19.93zm11.3-1.48a.47.47.0 0 1-.41-.23.48.48.0 0 1 .15-.66l3.28-2A.49.49.0 0 1 75 179a.49.49.0 0 1-.16.67l-3.28 2A.47.47.0 0 1 71.31 181.73zm-15.93-1.09a.48.48.0 0 1-.24-.06l-3.35-1.92a.48.48.0 0 1-.18-.65.49.49.0 0 1 .66-.18l3.34 1.91a.48.48.0 0 1-.23.9zM75.82 179a.47.47.0 0 1-.41-.23.48.48.0 0 1 .15-.66l3.28-2a.49.49.0 0 1 .67.15.51.51.0 0 1-.16.67l-3.28 2A.47.47.0 0 1 75.82 179zm-25-.94a.48.48.0 0 1-.24-.06L47.19 176a.48.48.0 1 1 .48-.84L51 177.11a.48.48.0 0 1-.24.9zm29.55-1.84a.47.47.0 0 1-.41-.23.48.48.0 0 1 .15-.66l3.28-2a.48.48.0 0 1 .66.15.49.49.0 0 1-.15.67l-3.28 2A.47.47.0 0 1 80.33 176.17zm-34.15-.79a.5.5.0 0 1-.24-.06l-3.35-1.91a.48.48.0 0 1 .48-.84l3.35 1.91a.48.48.0 0 1 .17.66A.45.45.0 0 1 46.18 175.38zm38.66-2a.48.48.0 0 1-.26-.89l3.28-2a.48.48.0 0 1 .66.15.49.49.0 0 1-.15.67l-3.28 2A.47.47.0 0 1 84.84 173.39zm-43.26-.64a.5.5.0 0 1-.24-.06L38 170.78a.48.48.0 1 1 .48-.84l3.35 1.92a.48.48.0 0 1 .18.65A.48.48.0 0 1 41.58 172.75zm47.76-2.14a.49.49.0 0 1-.41-.23.48.48.0 0 1 .16-.66l3.28-2a.48.48.0 0 1 .66.15.49.49.0 0 1-.15.67l-3.28 2A.48.48.0 0 1 89.34 170.61zM37 170.13a.42.42.0 0 1-.24-.07l-3.35-1.91a.49.49.0 0 1-.18-.66.48.48.0 0 1 .66-.17l3.35 1.91a.48.48.0 0 1 .18.65A.49.49.0 0 1 37 170.13z"/><path class="cls-8" d="M65.06 189.61a11.66 11.66.0 0 1-3.52-.57.48.48.0 1 1 .29-.91 10.32 10.32.0 0 0 3.63.51.48.48.0 0 1 .5.46.47.47.0 0 1-.46.5zm1.85-.19a.48.48.0 0 1-.47-.38.49.49.0 0 1 .37-.57 7.92 7.92.0 0 0 2.53-1l.8-.5a.49.49.0 0 1 .67.16.48.48.0 0 1-.16.66l-.81.5A8.72 8.72.0 0 1 67 189.41zm-6.58-.86a.43.43.0 0 1-.19.0 11.57 11.57.0 0 1-1.73-.91l-1.7-1a.48.48.0 1 1 .48-.84l1.72 1a10.28 10.28.0 0 0 1.61.85.47.47.0 0 1 .25.63A.48.48.0 0 1 60.33 188.56zm11.3-1.48a.48.48.0 0 1-.41-.23.48.48.0 0 1 .15-.66l3.28-2a.49.49.0 0 1 .67.16.48.48.0 0 1-.16.66l-3.28 2A.47.47.0 0 1 71.63 187.08zM55.7 186a.5.5.0 0 1-.24-.06L52.11 184a.48.48.0 1 1 .48-.84l3.35 1.91a.49.49.0 0 1 .18.66A.48.48.0 0 1 55.7 186zm20.44-1.69a.48.48.0 0 1-.41-.23.48.48.0 0 1 .15-.66l3.28-2a.49.49.0 0 1 .67.16.48.48.0 0 1-.16.66l-3.28 2A.47.47.0 0 1 76.14 184.3zm-25-.94a.5.5.0 0 1-.24-.06l-3.35-1.91a.48.48.0 1 1 .48-.84l3.35 1.91a.49.49.0 0 1 .18.66A.48.48.0 0 1 51.1 183.36zm29.55-1.84a.48.48.0 0 1-.41-.23.48.48.0 0 1 .15-.66l3.28-2a.49.49.0 0 1 .67.16.48.48.0 0 1-.16.66l-3.28 2A.47.47.0 0 1 80.65 181.52zm-34.15-.78a.42.42.0 0 1-.24-.07l-3.35-1.91a.49.49.0 0 1-.18-.66.48.48.0 0 1 .66-.17l3.35 1.91a.48.48.0 0 1 .18.65A.49.49.0 0 1 46.5 180.74zm38.66-2a.47.47.0 0 1-.41-.23.48.48.0 0 1 .15-.66l3.28-2a.49.49.0 0 1 .67.16.5.5.0 0 1-.16.66l-3.28 2A.47.47.0 0 1 85.16 178.74zm-43.26-.63a.42.42.0 0 1-.24-.07l-3.35-1.91a.46.46.0 0 1-.17-.65.46.46.0 0 1 .65-.18l3.35 1.91a.49.49.0 0 1 .18.66A.49.49.0 0 1 41.9 178.11zM89.67 176a.47.47.0 0 1-.41-.23.48.48.0 0 1 .15-.66l3.28-2a.47.47.0 0 1 .66.16.48.48.0 0 1-.15.66l-3.28 2A.47.47.0 0 1 89.67 176zm-52.37-.48a.53.53.0 0 1-.24-.06l-3.35-1.92a.46.46.0 0 1-.17-.65.48.48.0 0 1 .65-.18l3.35 1.91a.48.48.0 0 1-.24.9z"/><path class="cls-8" d="M65.05 195a11.64 11.64.0 0 1-3.51-.57.48.48.0 1 1 .29-.91 11 11 0 0 0 3.22.52 2.87 2.87.0 0 0 .41.0.47.47.0 0 1 .5.46.47.47.0 0 1-.46.5A2.27 2.27.0 0 1 65.05 195zm1.86-.19a.48.48.0 0 1-.1-1 8.15 8.15.0 0 0 2.53-1l.8-.5a.49.49.0 0 1 .67.15.49.49.0 0 1-.16.67l-.81.49A8.53 8.53.0 0 1 67 194.76zm-6.58-.86a.43.43.0 0 1-.19.0 11.57 11.57.0 0 1-1.73-.91l-1.7-1a.48.48.0 0 1-.18-.65.49.49.0 0 1 .66-.18l1.72 1a11.38 11.38.0 0 0 1.61.85.47.47.0 0 1 .25.63A.48.48.0 0 1 60.33 193.91zm11.3-1.48a.48.48.0 0 1-.41-.23.48.48.0 0 1 .15-.66l3.28-2a.49.49.0 0 1 .67.15.49.49.0 0 1-.16.67l-3.28 2A.47.47.0 0 1 71.63 192.43zM55.7 191.34a.5.5.0 0 1-.24-.06l-3.35-1.91a.48.48.0 1 1 .48-.84l3.35 1.91a.49.49.0 0 1 .18.66A.5.5.0 0 1 55.7 191.34zm20.44-1.69a.48.48.0 0 1-.41-.23.48.48.0 0 1 .15-.66l3.28-2a.49.49.0 0 1 .67.15.49.49.0 0 1-.16.67l-3.28 2A.47.47.0 0 1 76.14 189.65zm-25-.94a.5.5.0 0 1-.24-.06l-3.35-1.91a.48.48.0 1 1 .48-.84l3.35 1.91a.49.49.0 0 1 .18.66A.48.48.0 0 1 51.1 188.71zm29.55-1.84a.47.47.0 0 1-.41-.23.48.48.0 0 1 .15-.66l3.28-2a.48.48.0 1 1 .51.82l-3.28 2A.47.47.0 0 1 80.65 186.87zm-34.15-.79a.5.5.0 0 1-.24-.06l-3.35-1.91a.48.48.0 0 1 .48-.84l3.35 1.92a.48.48.0 0 1 .18.65A.48.48.0 0 1 46.5 186.08zm38.66-2a.47.47.0 0 1-.41-.23.48.48.0 0 1 .15-.66l3.28-2a.49.49.0 0 1 .67.16.5.5.0 0 1-.16.66l-3.28 2A.47.47.0 0 1 85.16 184.09zm-43.26-.63a.42.42.0 0 1-.24-.07l-3.35-1.91a.47.47.0 0 1-.17-.66.46.46.0 0 1 .65-.17l3.35 1.91a.48.48.0 0 1-.24.9zm47.77-2.15a.47.47.0 0 1-.41-.23.48.48.0 0 1 .15-.66l3.28-2a.47.47.0 0 1 .66.16.48.48.0 0 1-.15.66l-3.28 2A.47.47.0 0 1 89.67 181.31zm-52.37-.48a.44.44.0 0 1-.24-.07l-3.35-1.91a.46.46.0 0 1-.17-.65.48.48.0 0 1 .65-.18l3.35 1.91a.49.49.0 0 1 .18.66A.49.49.0 0 1 37.3 180.83z"/><path class="cls-6" d="M54 21.36s-22.63 20.71-17.58 52c0 0 7 36.84 9.87 47.19l10.12 2.17S53.3 73.37 54.74 59.64c0 0 2.17-29.86 9.63-36.84z"/><path class="cls-6" d="M75.68 22.08S93 44.23 88 75.54c0 0-4.58 35.39-7.47 45.75l-11.07 2.16s2.42-45.75 1.7-60.68c0 0-.49-34.43-6.76-39.25z"/><path class="cls-9" d="M89.6 125.08c-4.47 4.25-14.48 7.2-26.12 7.2-12.13.0-22.49-3.21-26.66-7.75l-7.53-13.45s34.66 26.11 68.88.0z"/><path class="cls-9" d="M49.69 2.09a76.25 76.25.0 0 1 24.56-.72L63.9 16.77z"/><path class="cls-9" d="M49.69 2.09A40.58 40.58.0 0 1 63.9 16.77l-35.4-6A50 50 0 0 1 49.69 2.09z"/><path class="cls-9" d="M74.25 1.37A40.46 40.46.0 0 0 61.76 19.85L92.31 7.15S85.93 1.89 74.25 1.37z"/><path class="cls-9" d="M62.93 17S73.77 6.91 92.31 7.15c0 0 12 4.48 16.35 10.19z"/><path class="cls-9" d="M63.9 16.77S51.13 6.43 29.46 10.52c-2.29.43-4.77 2.46-6.57 3.79C16 19.41 9.33 26.48 6 34.51c-2 4.77-3.71 10.81-2.49 16.05.54 2.3 2.06 5.63 4.72 5.86 3.14.27 6.24-3.74 8.46-5.44s4.44-3.74 6.8-5.42l25.1-17.87z"/><path class="cls-9" d="M62.93 17S40.05 7.39 19.1 28.34c0 0-11.07 11.08-10.59 27.93.0.0 8 15.81 27 9.11z"/><path class="cls-9" d="M62.93 17s33.19-6.11 45.73.32c0 0 8.69 6.67 12.06 15.58.0.0 10.11 24.56-15.17 28.41C105.55 61.33 70.15 15.34 62.93 17z"/><path class="cls-9" d="M62.93 17c0-.15 7.17 1.15 7.71 1.28A46.58 46.58.0 0 1 98.28 36.05a36.66 36.66.0 0 1 5.4 10.79c1 3 3.94 11.6 1.87 14.49.0.0-12.43 17.3-34.27 6.24C71.28 67.57 62.93 17 62.93 17z"/><path class="cls-9" d="M70.05 41.38A83.13 83.13.0 0 0 62.93 17s-6.86 2.29-13.57 9.63v0C40.86 37.06 34.84 51.85 35.48 65.38c0 0 17.54 15.35 35.8 2.19.43-.3.07-3.92.07-4.41A145.41 145.41.0 0 0 70.05 41.38z"/><ellipse class="cls-9" cx="63.32" cy="16.96" rx="20.47" ry="9.81"/><ellipse class="cls-10" cx="63.41" cy="16.38" rx="10.24" ry="4.91"/><ellipse class="cls-11" cx="32.45" cy="42.64" rx="16.23" ry="14.7" transform="translate(-18.21 25.19) rotate(-33.73)"/><path class="cls-12" d="M94.69 154l-25.3-14.5c-7.74-3.71-13.2.84-13.2.84L32.3 154.11"/><path class="cls-13" d="M71.13 162.47a19.28 19.28.0 0 1-3 1.17 14.07 14.07.0 0 1-3.74.72h-.65a3 3 0 0 0-.65.0 16.31 16.31.0 0 1 3.28-3.15 6 6 0 0 1 3.44-1 3.3 3.3.0 0 1 1.45.35c.36.21.94.72.82 1.19a.86.86.0 0 1-.45.49z"/><path class="cls-14" d="M57 171.13a3.72 3.72.0 0 1-2.08-.57c-.79-.63.57-6.94.91-7.89a5.5 5.5.0 0 1 1.87-2.33A14.83 14.83.0 0 1 70 157.49a52.83 52.83.0 0 1 .75 5.8c0 .45 1.13 6.05 1 6.47-.53 1.18-3.17 1.12-4.25 1.23A75 75 0 0 1 57 171.13z"/><path class="cls-15" d="M86.43 131.16a3.13 3.13.0 0 0-1.53-.56.26.26.0 0 0 .22-.34.43.43.0 0 0-.36-.26 1.24 1.24.0 0 0-.47.06l-.7.21c-1.18.37-2.62.84-3.63.13a2.69 2.69.0 0 0-.49-.34.58.58.0 0 0-.57.0 8.5 8.5.0 0 1 .93 1.7 2 2 0 0 1 .12.31 1.39 1.39.0 0 1 .1.5.89.89.0 0 0 .14.55l.14.14a3.51 3.51.0 0 0-.37.4l-.18.23c-3 3.74-7.34 8-10.33 11.73-.5.62.36.75.08 1.49a2 2 0 0 0-.11.35 2.51 2.51.0 0 0 .19 1.94 2 2 0 0 0 1.6.93c1.44.0 1.82-1.41 2.49-2.4.93-1.37 1.82-2.77 2.69-4.19a97 97 0 0 0 4.67-8.63 3.32 3.32.0 0 0 .47-1.76 6.53 6.53.0 0 1 1.55-.54 9.56 9.56.0 0 1 1.31-.16c.21.0.41.0.62.0s.66.14.87.0a.14.14.0 0 0 .08-.2.2.2.0 0 0-.14-.08L85 132.3c.47-.36 1.55.0 1.82-.62C86.89 131.42 86.65 131.31 86.43 131.16z"/><path class="cls-16" d="M82.21 130.86h.07a1.1 1.1.0 0 1 .17.12.94.94.0 0 1 .1.1.54.54.0 0 1 .09.12.75.75.0 0 1 .09.15l.07.16v.16a1 1 0 0 1 0 .17.43.43.0 0 1 0 .16.51.51.0 0 1 0 .13 1.24 1.24.0 0 1-.06.2.22.22.0 0 1 0 .07.45.45.0 0 0 0-.08 1.42 1.42.0 0 0 0-.19s0-.08.0-.13.0-.09.0-.14.0-.19-.08-.29-.07-.19-.11-.27l-.06-.13-.06-.11a1.26 1.26.0 0 0-.11-.17A.25.25.0 0 0 82.21 130.86z"/><path class="cls-16" d="M85.5 131.49a4.15 4.15.0 0 1-.43.07h-.21-.22c-.16.0-.33.0-.5.06l-.5.06h-.22-.21-.43s.16-.07.41-.15l.42-.11.51-.08h.51a3.12 3.12.0 0 1 .44.0C85.33 131.46 85.5 131.49 85.5 131.49z"/><path class="cls-16" d="M84.42 130.8a2.18 2.18.0 0 1-.3.07h-.14-.15l-.34.07-.33.08h-.15-.14a2.19 2.19.0 0 1-.3.0 1.56 1.56.0 0 1 .25-.17L83 131a.76.76.0 0 1 .16-.06l.34-.11h.36a.45.45.0 0 1 .16.0h.15z"/><g class="cls-17"><path class="cls-18" d="M79.78 134.3c-3 3.75-7.22 7.8-10.21 11.55-.49.62.24.94.0 1.67s.64 1.63 1.35 1.41c.43-.14.59-.65.72-1.08.84-2.77 2.67-5.12 4.46-7.4a18 18 0 0 0 2.26-3C78.82 136.44 79.33 135.37 79.78 134.3z"/></g><path class="cls-19" d="M57.82 153.38a43 43 0 0 1-2.4 9.24s-.42 1.22 2.64.35c1-.29 2.06-.52 3.07-.86 1.36-.47 2.69-1 4.07-1.44.41-.12.81-.22 1.22-.3a10.33 10.33.0 0 1 2.9-.18 3.52 3.52.0 0 1 2.75 1.35c-.23-1.63-.91-7.24-1-8.32a6.6 6.6.0 0 1 .82-2.27c.65-1.08 1.52-2 2.25-3 .06-.09.13-.17.2-.26.2-.25.46-.44.67-.67a4.51 4.51.0 0 1-1.25-.27 4.16 4.16.0 0 1-1.59-1 4.07 4.07.0 0 1-1-1.63 5.1 5.1.0 0 1-.2-1.29c-.14.16-.3.32-.46.49a10.53 10.53.0 0 1-1.69 1.53 13 13 0 0 0-1.53 1.06h-.37-.15c-.24.0-.48.0-.71.05-1.81.0-3.61-.44-5.42-.33a2.31 2.31.0 0 0-1.21.22c-1.87.36-4.38 2.9-6.48 4.22A10.29 10.29.0 0 0 57.82 153.38z"/><path class="cls-15" d="M67.3 146a4.93 4.93.0 0 1-1.42 1.42A3.49 3.49.0 0 1 64 148c-1.26.0-3.12-.87-3.14-2.34a5 5 0 0 1 .72.06c.24.0.51.0.62-.27a1.31 1.31.0 0 0 .07-.44 1.36 1.36.0 0 0 0-.2 11.37 11.37.0 0 0 .13-1.14 1.84 1.84.0 0 1 .34-1.18v0a2.14 2.14.0 0 1 1.61-.88 1.78 1.78.0 0 1 1.59.86 1.84 1.84.0 0 1 .19.49 3.89 3.89.0 0 1 .07 1.13c0 .14.0.32.0.52.0.49.0 1.06.35 1.26A1.68 1.68.0 0 0 67.3 146z"/><path class="cls-14" d="M55.42 163.86s5.51.9 15.11-2.18"/><g class="cls-20"><path class="cls-18" d="M65.73 142.71a3.74 3.74.0 0 1 .06.95c0 .12.0.27.0.44a6.06 6.06.0 0 1-2.93.44 2.34 2.34.0 0 1-.38-.09 10.83 10.83.0 0 0 .12-1.13 1.63 1.63.0 0 1 .29-1 2.9 2.9.0 0 1 .76-.14 4.38 4.38.0 0 1 1.79.37A1.91 1.91.0 0 1 65.73 142.71z"/></g><path class="cls-21" d="M63 131.76s-7 2.3-5 9.52c0 0 .82 3.49-.67 3.73.0.0 6.76.31 6.25-9.28"/><path class="cls-22" d="M56.75 136c-.77-1.7.08-4.77.08-4.77A9.12 9.12.0 0 1 59 126.67a4.69 4.69.0 0 1 2.14-1.39c.94-.23 1.91.4 2.8.09 5.48-2 9.32 6 8.46 10.41"/><path class="cls-15" d="M69 130.23l1.2 3.67c.1 1.66 1.71 1 1.31 2.6-.95 3.84-4.09 7.15-8.27 6.65a6.45 6.45.0 0 1-5-4.43c-.41-1.28.37-2.64.34-4l.91-3.91a35.22 35.22.0 0 1 9.47-.6"/><path class="cls-15" d="M58.63 138.61h-.05a.25.25.0 0 1-.12.0l-.27-.06-.29-.1a2.76 2.76.0 0 1-1-.61 1.71 1.71.0 0 1-.51-1.63 1.18 1.18.0 0 1 1.37-.85l.17.07a.72.72.0 0 1 .25.18 1.48 1.48.0 0 1 .41.65 4 4 0 0 1 .13 1.25v.91a.52.52.0 0 1 0 .11A.1.1.0 0 1 58.63 138.61z"/><path class="cls-15" d="M69.74 137.9a.2.2.0 0 0 0 .11.09.09.0 0 0 0 .07.05.05.0 0 0 0 0 .23.23.0 0 0 .12.0h.27.31a2.72 2.72.0 0 0 1.13-.42 1.73 1.73.0 0 0 .81-1.52 1.2 1.2.0 0 0-1.21-1.08.51.51.0 0 0-.17.0 1.08 1.08.0 0 0-.29.13 1.43 1.43.0 0 0-.52.57"/><path class="cls-22" d="M69.72 129.8v2c-4.77 2.34-11.2.34-11.2.34l.18-2.42"/><path class="cls-22" d="M68.61 131.94c.77 2.73 1.92 5.82.3 9.31a5.09 5.09.0 0 1-2.13 2.55c7.72-3.92 2.68-14.68 2.68-14.68"/><path class="cls-22" d="M60 131.6c-.51 3.71-1.72 5.8-.28 9.45a4.49 4.49.0 0 0 2 2.56C55 140.73 58.88 129 58.88 129"/><path class="cls-22" d="M60.33 127.17c.74-1.4 3.14-.58 3.14-.58s3.14-1.4 4.54 1"/><path class="cls-22" d="M62.29 128.69a11.08 11.08.0 0 0-.59 4"/><path class="cls-22" d="M65.37 128.61a6.26 6.26.0 0 1 .59 4.1"/><path class="cls-22" d="M63.23 125.45s2.14-.43 1.37-2.22C64.6 123.23 66.73 125.71 63.23 125.45z"/><ellipse class="cls-23" cx="67.16" cy="135.89" rx="2.37" ry="2.21" transform="translate(-10.76 5.87) rotate(-4.63)"/><path class="cls-24" d="M68.89 135.49a2.32 2.32.0 0 0-3.3.07"/><ellipse class="cls-16" cx="66.94" cy="136.5" rx=".56" ry=".82" transform="translate(-73.67 194.29) rotate(-86.22)"/><ellipse class="cls-23" cx="61.53" cy="135.72" rx="2.21" ry="2.37" transform="translate(-78.72 186.09) rotate(-85.37)"/><path class="cls-24" d="M59.86 135.38a2.3 2.3.0 0 1 3.29.06"/><ellipse class="cls-16" cx="61.8" cy="136.38" rx=".82" ry=".56" transform="translate(-8.86 4.37) rotate(-3.78)"/><path class="cls-24" d="M63.65 138.82 64.19 139.11 64.76 138.8"/><path class="cls-25" d="M62.32 140.06a19.39 19.39.0 0 1 3.94.08 4.44 4.44.0 0 1-.38.91A2 2 0 0 1 62.32 140.06z"/><path class="cls-26" d="M62.75 140.69a14.14 14.14.0 0 0 3.11.09l.16-.48a13.47 13.47.0 0 0-3.56-.06z"/><path class="cls-27" d="M59.9 145.94a4.21 4.21.0 0 0 8.07-.39"/><path class="cls-28" d="M81.92 135.57A4.5 4.5.0 0 1 78.6 134c-1.92 3.07-9.83 10.79-9.83 10.79-.87.8-2.62-.25-2.62-.25C69.51 152 70 171 70 171c4-.9 5.25-1.15 5.25-1.15-.77-3.59-3-12.42-3-12.42-.21-.72-1.16-4.78-.89-5.38 1-2.32 2.94-4 4.46-6C75.89 146.08 81.08 138.77 81.92 135.57z"/><path class="cls-24" d="M61.31 160.4s3.07-1.66 5.51-1.53"/><path class="cls-24" d="M61.57 159a26.83 26.83.0 0 1 3.33-.89"/><path class="cls-28" d="M61.82 144.91s0 19.46-1.53 26.38a16.51 16.51.0 0 1-6.92-.39s2.69-12.8 4.1-17.67l-.25-6.14S57.5 145.25 61.82 144.91z"/><path class="cls-24" d="M64.51 165.65a20.25 20.25.0 0 1-.25 5.25"/><path class="cls-24" d="M68.16 163.64s.83 5 .19 7.39"/><path class="cls-29" d="M94.77 154.13l-1.83-1.06-21.4 12.35a15.42 15.42.0 0 1-15.41.0L34.74 153.07l-1.84 1.07 26.91 15.32 2.63 2.27 8.24-.47 7.76-5.5z"/><path class="cls-30" d="M32.91 156.23v5.17h0a4 4 0 0 0 2 3.43l22.6 13a12 12 0 0 0 12 0l22.59-13a4 4 0 0 0 2-3.43h0v-5.48L69.84 170.29a11.44 11.44.0 0 1-11.38.16z"/><path class="cls-31" d="M32.47 154.34v5.17h0a4 4 0 0 0 2 3.43L57.34 176a12.28 12.28.0 0 0 12.14.0l22.87-13.05a4 4 0 0 0 2-3.43h0V154L69.83 168.4a11.64 11.64.0 0 1-11.51.16z"/><path class="cls-12" d="M94.69 154 69.84 168.4c-5.5 3.06-9.8 1-9.8 1L32.3 154.11"/><path class="cls-15" d="M54.14 150.54a8 8 0 0 0-1.43 1.1l-.32.29c-1.45 1.32-2.86 2.7-4.3 4a26.73 26.73.0 0 0-2.31 2.44c-.42-.3-1.19-.18-1.63-.26l-.28-.05a7.12 7.12.0 0 1-1-.29c-.15-.06-.29-.14-.43-.21s-.44-.31-.61-.32a.13.13.0 0 0-.13.13.18.18.0 0 0 .08.09l.56.41c-.45.11-1.1-.52-1.51-.13-.16.16.0.31.1.49a2.51 2.51.0 0 0 .92.88.2.2.0 0 0-.26.18.34.34.0 0 0 .18.3 1.07 1.07.0 0 0 .36.1 8 8 0 0 1 2.59.53c0 .27.14.44.53.46a1.27 1.27.0 0 1 .1.12 3.34 3.34.0 0 0 .25.4.44.44.0 0 0 .43.15 4.81 4.81.0 0 1-.12-.76h.09a3.64 3.64.0 0 0 .89-.52c2.78-2 5.5-4.07 8.35-5.94.81-.54 2.16-.87 2.45-1.9C58.26 150.2 55.42 149.85 54.14 150.54z"/><path class="cls-28" d="M57.51 146.43s-8 5.62-11.09 10.58a5.62 5.62.0 0 1 1.37 3s7.08-3.16 9.17-6c0 0 1.52-.68 1-4.13"/><path class="cls-16" d="M44.75 159.61s-.17-.05-.41-.15l-.19-.08-.22-.09-.45-.19-.47-.2-.21-.09-.19-.09a3.61 3.61.0 0 1-.38-.19 4 4 0 0 1 .42.08 2.82 2.82.0 0 1 .43.12l.48.17.46.23a4.27 4.27.0 0 1 .38.22A4 4 0 0 1 44.75 159.61z"/><path class="cls-16" d="M44.44 159l-.27-.14-.12-.08-.14-.07-.29-.18a2.85 2.85.0 0 1-.3-.16l-.14-.08-.12-.07a1.6 1.6.0 0 1-.26-.16l.3.05h.15a.94.94.0 0 1 .15.06l.33.15.29.2a.75.75.0 0 1 .13.11.94.94.0 0 1 .1.1C44.37 158.94 44.44 159 44.44 159z"/></g></g></svg>