<svg xmlns="http://www.w3.org/2000/svg" viewBox="0 0 232.49 13.61"><defs><style>.cls-1{opacity:.27}.cls-2{fill:#fff}</style></defs><title>menu-line</title><g id="圖層_2" data-name="圖層 2"><g id="menu"><g class="cls-1"><path class="cls-2" d="M232.49 7.5c-.4.06-.79.1-1.19.12s-.8.0-1.19.0-.79-.07-1.18-.13-.78-.12-1.17-.2c-1.55-.31-3.08-.77-4.66-1.14a23.84 23.84.0 0 0-2.41-.46c-.42-.06-.83-.08-1.25-.12h-.62c-.21.0-.42.0-.62.0a26 26 0 0 0-4.92.55c-.8.16-1.59.35-2.38.55s-1.57.41-2.34.63c-1.55.43-3.08.89-4.6 1.28-.76.19-1.52.38-2.28.52-.38.09-.76.14-1.14.21l-.57.08h-.29-.28l-.57.06h-.56-.28-.85c-.37.0-.74.0-1.11-.07h-.28-.13-.14l-.54-.08a1.81 1.81.0 0 1-.27-.06h-.27l-.27-.06-.27-.08-.52-.15-.52-.18-.26-.1-.25-.1c-.17-.08-.34-.15-.51-.24l-1-.52c-.68-.37-1.37-.78-2.1-1.17-.37-.2-.74-.4-1.13-.57L187 5.78l-.59-.23-.29-.12-.3-.1-.61-.2c-.2-.07-.4-.12-.6-.18L184 4.79l-.62-.14-.62-.12c-.41-.08-.83-.13-1.24-.18a24.41 24.41.0 0 0-5-.06l-.62.06h-.3-.31l-.61.08-.61.1c-.4.06-.8.15-1.21.22l-.59.13-.6.14A46.46 46.46.0 0 0 167 6.48a79.94 79.94.0 0 0-8.85 3.85c.77-.24 1.53-.5 2.29-.75l2.29-.73c1.52-.48 3.05-.93 4.59-1.33l1.16-.29L169.64 7l.58-.13.58-.11L172 6.51l.58-.09.58-.09 1.17-.14.58-.06h.59.29H176h.58c.78.0 1.55.0 2.32.0h.29.29.57c.2.0.38.0.57.07h.29.28a19.2 19.2.0 0 1 4.38 1.21l.53.23.51.24c.34.16.67.34 1 .53.67.37 1.35.79 2.07 1.2.36.2.73.4 1.12.58l.58.28.3.12.31.12.61.22.63.19.31.09.32.07.32.07a3 3 0 0 0 .32.06l.64.1h.16.16.32c.43.05.86.05 1.29.06h.95.32.63l.63-.08h.31.31l.62-.1c.41-.08.82-.15 1.22-.24.81-.17 1.61-.38 2.39-.6 1.57-.45 3.1-1 4.62-1.44s3-1 4.55-1.35c.37-.1.76-.18 1.14-.27l.57-.12.57-.11c.38-.06.77-.13 1.15-.17h.29a2.58 2.58.0 0 1 .29.0h.57c.2.0.39.0.58.0h.58c.38.0.77.0 1.15.0.78.0 1.55.14 2.34.25 1.57.23 3.15.54 4.77.69a16.57 16.57.0 0 0 2.44.0A10.62 10.62.0 0 0 232.49 7.5z"/></g><g class="cls-1"><path class="cls-2" d="M148.62 7.9c-.57-.46-1.15-.9-1.74-1.33s-1.18-.86-1.79-1.28-1.22-.81-1.84-1.2S142 3.33 141.34 3s-1.31-.69-2-1-1.37-.59-2.07-.84a20.08 20.08.0 0 0-2.17-.65l-.56-.12L134 .26l-.28-.05h-.28-.29-.28-.29-.14-.15-.57-1.45-.29-.29-.15-.14l-.58.08-.57.11c-.2.0-.38.08-.57.12l-.57.15c-.38.1-.74.23-1.1.36-.72.26-1.42.56-2.09.86s-1.33.62-2 .91-1.29.57-1.94.8a12.44 12.44.0 0 1-1.92.52 7.91 7.91.0 0 1-.95.11h-1a12.15 12.15.0 0 1-3.84-1.06c-1.3-.54-2.6-1.21-4-1.76a17.41 17.41.0 0 0-2.22-.7l-.3-.06L105.5.48l-.6-.09h-.3-.3H104c-.11.0-.21.0-.31.0h-.6l-.6.06-.59.1h-.15-.14l-.29.07a15.6 15.6.0 0 0-2.19.72c-.7.28-1.38.59-2 .91l-2 .93c-.65.3-1.3.57-2 .81-.33.12-.67.22-1 .33l-1 .26-.26.06h-.26c-.17.0-.34.07-.52.09l-.52.08-.53.06h-.27-.27c-.17.0-.35.0-.53.0h-.53-.54a19.26 19.26.0 0 1-2.15-.16 19.65 19.65.0 0 1-2.14-.4 18.11 18.11.0 0 0 2.07.73 16 16 0 0 0 2.17.44l.56.07h.55.56.56a18.71 18.71.0 0 0 2.24-.14 18.94 18.94.0 0 0 4.35-1.13c.7-.26 1.38-.54 2-.8s1.34-.53 2-.75a14.7 14.7.0 0 1 2-.54L102 2.4h.13.12l.49-.06h.49.49a10.59 10.59.0 0 1 3.84 1c.64.27 1.29.57 1.94.88s1.32.63 2 .93a18 18 0 0 0 2.17.81c.37.11.76.21 1.16.29l.6.1h.3.31.31.31c.2.0.41.0.61.0a8.3 8.3.0 0 0 1.22-.15 11.48 11.48.0 0 0 1.16-.27c.38-.11.76-.23 1.12-.37.72-.27 1.42-.58 2.09-.9s1.32-.64 2-.95 1.29-.61 1.93-.87c.32-.13.64-.24 1-.35l.48-.14.49-.14a13.57 13.57.0 0 1 2-.32h.26.25.52 1a18.06 18.06.0 0 1 2.06.24 21.08 21.08.0 0 1 2.06.46c.68.19 1.36.4 2 .64s1.34.51 2 .79 1.31.58 2 .89l1.94 1C146.06 6.49 147.34 7.19 148.62 7.9z"/></g><g class="cls-1"><path class="cls-2" d="M71.84 12.35c-.66-.44-1.32-.85-2-1.27s-1.34-.81-2-1.2-1.38-.76-2.08-1.12-1.42-.69-2.15-1a28.73 28.73.0 0 0-4.52-1.57L58.5 6l-.6-.13c-.39-.07-.79-.14-1.2-.19a16.49 16.49.0 0 0-2.44-.17 15.79 15.79.0 0 0-2.47.18 17.16 17.16.0 0 0-2.43.58l-.59.21-.58.23c-.38.17-.75.34-1.12.53-.72.37-1.42.77-2.1 1.17s-1.34.79-2 1.16a19.27 19.27.0 0 1-2 1 10 10 0 0 1-2 .62 9.92 9.92.0 0 1-2.11.19 17.9 17.9.0 0 1-4.35-.65c-1.46-.38-2.92-.88-4.41-1.36-.75-.24-1.5-.48-2.27-.7l-.58-.17-.58-.15-.59-.13-.59-.13a31 31 0 0 0-4.77-.63c-.4.0-.8.0-1.2-.05h-1.2-1.19l-1.19.06c-1.58.1-3.15.27-4.71.5C6.1 8.47 3 9.14.0 9.89l1.17-.11 1.17-.11 2.33-.22c1.56-.15 3.11-.28 4.66-.37L10.49 9h1.16.58H14a43.82 43.82.0 0 1 4.59.26l1.14.14 1.12.18.28.05.28.05.56.12.55.11L23 10l.55.14c.18.0.37.09.55.15.36.1.73.21 1.09.33.73.23 1.46.49 2.19.75 1.47.51 3 1 4.52 1.47a19.29 19.29.0 0 0 4.9.76 13 13 0 0 0 2.55-.24l.63-.14.62-.19c.2-.06.4-.14.6-.21l.3-.11.29-.12A21.65 21.65.0 0 0 44 11.47c.69-.4 1.37-.82 2-1.23a22.2 22.2.0 0 1 4-2.09 13.64 13.64.0 0 1 2.1-.6 14.56 14.56.0 0 1 2.19-.27 16.77 16.77.0 0 1 2.24.0 19.35 19.35.0 0 1 2.24.29 30.89 30.89.0 0 1 4.44 1.16c1.46.49 2.9 1.06 4.34 1.67S70.41 11.7 71.84 12.35z"/></g></g></g></svg>