<svg xmlns="http://www.w3.org/2000/svg" viewBox="0 0 140 136.6"><defs><style>.cls-1{fill:#d1e7ff}.cls-2{fill:#b1d0e3;opacity:.44}</style></defs><title>menu-cloud-up</title><g id="圖層_2" data-name="圖層 2"><g id="menu"><path class="cls-1" d="M123.32 32.9C135.26 27 143.59 13.92 138.46 1V0L0 1 .51 136.6c39.4-36.83 20.78-73.67 20.78-73.67C37.66 60.37 37.66 45 37.66 45S71.39 68.24 93.55 30.94C93.55 30.94 108.76 40.12 123.32 32.9z"/><path class="cls-2" d="M133.12 1c1.45 10.93-4.17 17.64-14.18 22.6-14.55 7.22-28.6-2-28.6-2-22.16 37.3-53 14.08-53 14.08S30 57.75 8.46 56.52c0 0 21.49 29.81-8.29 63.89V1z"/></g></g></svg>