<?xml version="1.0" encoding="UTF-8"?>
<svg id="_圖層_2" data-name="圖層 2" xmlns="http://www.w3.org/2000/svg" viewBox="0 0 61.86 32.98">
  <defs>
    <style>
      .cls-1 {
        fill: #d0e6ff;
      }

      .cls-2 {
        fill: #c5e8ff;
        opacity: .44;
      }
    </style>
  </defs>
  <g id="_首頁" data-name="首頁">
    <g>
      <path class="cls-2" d="M53.43,16.12s-.08,.01-.12,.01c.05-.4,.12-.8,.12-1.22,0-5.32-4.32-9.64-9.64-9.64-1.82,0-3.51,.54-4.97,1.41C35.89,2.64,31.14,0,25.77,0c-8.08,0-14.76,5.95-15.92,13.71-.07,0-.13-.02-.2-.02C4.32,13.69,0,18.01,0,23.34s4.32,9.64,9.64,9.64H53.43c4.65,0,8.43-3.77,8.43-8.43s-3.77-8.43-8.43-8.43Z"/>
      <path class="cls-1" d="M53.43,16.12s-.08,.01-.12,.01c.05-.4,.12-.8,.12-1.22,0-5.32-4.32-9.64-9.64-9.64-1.82,0-3.51,.54-4.97,1.41C35.89,2.64,31.14,0,25.77,0c-8.08,0-14.76,5.95-15.92,13.71-.07,0-.13-.02-.2-.02-1.88,0-3.63,.54-5.11,1.47,2.13-.2,6.64-.17,9.13,2.37,.03-12.63,13.72-12.58,17.39-9.18-5.91,1.27-8.87,7.43-8.87,7.43,3.93-5.14,13.24-3.38,14.75-1.69,2.66-5.08,14.14-3.02,14.02,5.8,3.26-3.08,7.74-1.14,9.83,.55-1.44-2.57-4.19-4.31-7.35-4.31Z"/>
    </g>
  </g>
</svg>