<?xml version="1.0" encoding="UTF-8"?>
<svg id="_圖層_2" data-name="圖層 2" xmlns="http://www.w3.org/2000/svg" viewBox="0 0 160.29 61.39">
  <defs>
    <style>
      .cls-1 {
        fill: #fff;
      }

      .cls-2 {
        fill: #d0e6ff;
      }

      .cls-3 {
        fill: #c5e8ff;
        opacity: .44;
      }
    </style>
  </defs>
  <g id="_首頁" data-name="首頁">
    <g>
      <path class="cls-3" d="M151.03,33.08c-1.09-3.07-4.02-5.28-7.47-5.28-.36,0-.7,.06-1.04,.11-.88-4.12-4.53-7.21-8.91-7.21-.64,0-1.26,.07-1.86,.19-1.04-6.58-6.69-11.62-13.57-11.62-4.73,0-8.9,2.38-11.38,6.02-2.64-1.59-5.73-2.52-9.04-2.52-6.3,0-11.83,3.32-14.93,8.3-.65,.12-1.28,.3-1.87,.55-1.95-2.76-5.16-4.57-8.8-4.57-.9,0-1.76,.14-2.6,.35C67.6,7.47,58.84-.01,48.33,0c-9.99,.01-18.37,6.8-20.84,16.01-1.03-.31-2.11-.52-3.24-.52-6.29,0-11.39,5.1-11.41,11.39C5.44,28.98,0,35.72,0,43.79c.01,9.74,7.91,17.61,17.64,17.6,.18,0,127.1-.03,127.1-.03,.29,.02,.59,.03,.88,.03s.6-.01,.9-.03h.02s0,0,0,0c4.13-.25,7.79-2.21,10.3-5.18,2.16-2.55,3.45-5.85,3.45-9.46,0-6.19-3.84-11.49-9.27-13.64Z"/>
      <path class="cls-1" d="M148.33,36.67c-.19,.35-.35,.75-.45,1.2,.24-.37,.38-.77,.45-1.2Z"/>
      <path class="cls-2" d="M151.03,33.08c-1.09-3.07-4.02-5.28-7.47-5.28-.36,0-.7,.06-1.04,.11-.88-4.12-4.53-7.21-8.91-7.21-.64,0-1.26,.07-1.86,.19-1.04-6.58-6.69-11.62-13.57-11.62-4.73,0-8.9,2.38-11.38,6.02-2.64-1.59-5.73-2.52-9.04-2.52-6.3,0-11.82,3.32-14.92,8.3-.65,.11-1.29,.29-1.88,.55-1.95-2.76-5.16-4.57-8.8-4.57-.9,0-1.76,.14-2.6,.35C67.6,7.47,58.84-.01,48.33,0c-9.99,.01-18.37,6.8-20.84,16.01-1.03-.31-2.11-.52-3.24-.52-6.29,0-11.39,5.1-11.41,11.39-6.34,1.8-11.24,6.99-12.52,13.52,.15-.3,.31-.59,.48-.89,2.41-4.14,5.97-7.37,10.47-9.05,2.37-.88,4.61-.84,7.34-.27,.63-5.6,8.36-9.69,12.84-6.28-2.63-9.4,10.69-16.22,18.5-15.8,6.79,.37,12.75,3.96,14.85,10.28-5.88-3.23-14.09-.19-16.54,6.84,0,0-12.05-2.92-15.77,9.21,0,0,7.21-8.41,16.25-3.66,0,0,5.14-8.73,16.17-1.84l.13-.44c2.51-7.68,15.22-5.76,14.22,2.65,1.82-5.16,11.92-2.44,11.18,3.63,2.32-3.91,12.49-1.58,14.77,1.76-2.42-4.65-6.95-8.03-12.31-8.91-.31-1.27-.9-2.43-1.69-3.42,6.13-3.36,14.5-2.86,17.15,.17,1.27-4.31,14.1-7.41,18.92-.09,3.13-2.63,12.85-.39,11.27,7.83,4.29-4.55,10.32,.76,9.75,4.53,1.3-2.36,4.44-2.53,6.15-1.64-1.05-.8-2.21-1.46-3.45-1.95Z"/>
    </g>
  </g>
</svg>