<?xml version="1.0" encoding="UTF-8"?>
<svg id="_圖層_2" data-name="圖層 2" xmlns="http://www.w3.org/2000/svg" viewBox="0 0 82.16 47.08">
  <defs>
    <style>
      .cls-1 {
        fill: #d0e6ff;
      }

      .cls-2 {
        opacity: .8;
      }

      .cls-3 {
        fill: #c5e8ff;
        opacity: .44;
      }
    </style>
  </defs>
  <g id="_首頁" data-name="首頁">
    <g class="cls-2">
      <path class="cls-3" d="M71.25,21.2c-.72-2.96-3.37-5.16-6.56-5.16-.93,0-1.81,.19-2.62,.53-1.5-2.12-3.95-3.51-6.74-3.5-.69,0-1.35,.11-1.99,.27C51.83,5.73,45.12,0,37.06,0c-7.66,0-14.08,5.22-15.98,12.28-.79-.23-1.62-.4-2.48-.4-4.82,0-8.73,3.91-8.75,8.73C4.17,22.22,0,27.39,0,33.58c0,7.46,6.07,13.51,13.53,13.5,.22,0,55.63-.06,55.63-.06,7.19,0,13.01-5.84,13-13.03,0-6.46-4.73-11.77-10.9-12.79Z"/>
      <path class="cls-1" d="M71.25,21.2c-.72-2.96-3.37-5.16-6.56-5.16-.93,0-1.81,.19-2.62,.53-1.5-2.12-3.95-3.51-6.74-3.5-.69,0-1.35,.11-1.99,.27C51.83,5.73,45.12,0,37.06,0c-7.66,0-14.08,5.22-15.98,12.28-.79-.23-1.62-.4-2.48-.4-4.82,0-8.73,3.91-8.75,8.73C4.99,21.99,1.23,25.98,.25,30.98c.12-.23,.24-.46,.37-.68,1.85-3.18,4.58-5.65,8.03-6.94,1.82-.68,3.54-.64,5.63-.21,.48-4.3,6.41-7.43,9.84-4.81-2.01-7.21,8.2-12.44,14.18-12.11,5.21,.28,9.78,3.04,11.39,7.89-4.51-2.47-10.8-.14-12.68,5.25,0,0-9.24-2.24-12.09,7.07,0,0,5.53-6.45,12.46-2.81,0,0,3.94-6.69,12.4-1.41l.1-.34c1.93-5.89,11.67-4.42,10.9,2.03,1.39-3.95,9.14-1.87,8.58,2.79,1.78-3,9.57-1.21,11.33,1.35-1.86-3.56-5.33-6.15-9.44-6.83Z"/>
    </g>
  </g>
</svg>