<?xml version="1.0" encoding="UTF-8"?>
<svg id="_圖層_2" data-name="圖層 2" xmlns="http://www.w3.org/2000/svg" xmlns:xlink="http://www.w3.org/1999/xlink" viewBox="0 0 43.42 51.54">
  <defs>
    <style>
      .cls-1 {
        fill: none;
      }

      .cls-2 {
        clip-path: url(#clippath);
      }

      .cls-3 {
        fill: #f2f2f0;
      }

      .cls-4 {
        fill: #e7e7db;
      }

      .cls-5 {
        fill: #ececea;
        opacity: .8;
      }
    </style>
    <clipPath id="clippath">
      <path class="cls-1" d="M40,38.03c-7.19,12.77-23.37,17.28-36.14,10.09-12.77-7.19,9.56-8.25,16.75-21.02C27.81,14.34,17.14-5.3,29.91,1.89c12.77,7.19,17.28,23.37,10.09,36.14Z"/>
    </clipPath>
  </defs>
  <g id="_首頁-n" data-name="首頁-n">
    <g>
      <path class="cls-3" d="M40,38.03c-7.19,12.77-23.37,17.28-36.14,10.09-12.77-7.19,9.56-8.25,16.75-21.02C27.81,14.34,17.14-5.3,29.91,1.89c12.77,7.19,17.28,23.37,10.09,36.14Z"/>
      <path class="cls-5" d="M40,38.03c-7.19,12.77-23.37,17.28-36.14,10.09-12.77-7.19,25.2,2.33,34.5-19.83C46.47,8.99,17.14-5.3,29.91,1.89c12.77,7.19,17.28,23.37,10.09,36.14Z"/>
      <g class="cls-2">
        <g>
          <circle class="cls-4" cx="34.92" cy="38.38" r="8.88"/>
          <circle class="cls-4" cx="17.69" cy="49.93" r="5.91"/>
          <circle class="cls-4" cx="30.94" cy="21.89" r="4.18"/>
        </g>
      </g>
    </g>
  </g>
</svg>