<?xml version="1.0" encoding="UTF-8"?>
<svg id="_圖層_2" data-name="圖層 2" xmlns="http://www.w3.org/2000/svg" viewBox="0 0 1800 213.3">
  <defs>
    <style>
     <!-- 白 -->
      .cls-white {
        fill: #f2f2f3;
      }
      <!-- 黃 -->
      .cls-yellow {
        fill: #f5e69a;
      }
    </style>
  </defs>
  <g id="_首頁-n" data-name="首頁-n">
    <g>
        <path class="cls-white" d="M521.06,132.15c0-6.95-1.89-8.91-8.6-8.91,6.71,0,8.6-1.95,8.6-8.9,0,6.95,1.89,8.9,8.6,8.9-6.71,0-8.6,1.95-8.6,8.91Z"/>
        <path class="cls-white" d="M384.65,80.75c0-6.95-1.89-8.91-8.6-8.91,6.71,0,8.6-1.95,8.6-8.9,0,6.95,1.89,8.9,8.6,8.9-6.71,0-8.6,1.95-8.6,8.91Z"/>
        <path class="cls-white" d="M260.66,163.55c0-6.95-1.89-8.9-8.6-8.9,6.71,0,8.6-1.96,8.6-8.91,0,6.95,1.89,8.91,8.6,8.91-6.71,0-8.6,1.95-8.6,8.9Z"/>
        <path class="cls-white" d="M134.72,73.31c0-6.95-1.89-8.91-8.6-8.91,6.71,0,8.6-1.95,8.6-8.9,0,6.95,1.89,8.9,8.6,8.9-6.71,0-8.6,1.95-8.6,8.91Z"/>
        <path class="cls-white" d="M8.6,92.31c0-6.95-1.89-8.9-8.6-8.9,6.71,0,8.6-1.96,8.6-8.91,0,6.95,1.89,8.91,8.6,8.91-6.71,0-8.6,1.95-8.6,8.9Z"/>
        <path class="cls-white" d="M1217.79,111.27c0-8.69-2.44-11.13-11.13-11.13,8.69,0,11.13-2.44,11.13-11.13,0,8.69,2.44,11.13,11.13,11.13-8.69,0-11.13,2.44-11.13,11.13Z"/>
        <path class="cls-white" d="M1439.79,213.3c0-7.15-2.01-9.16-9.16-9.16,7.15,0,9.16-2.01,9.16-9.16,0,7.15,2.01,9.16,9.16,9.16-7.15,0-9.16,2.01-9.16,9.16Z"/>
        <path class="cls-white" d="M1789.35,58.29c0-7.15-2.01-9.16-9.16-9.16,7.15,0,9.16-2.01,9.16-9.16,0,7.15,2.01,9.16,9.16,9.16-7.15,0-9.16,2.01-9.16,9.16Z"/>
        <path class="cls-white" d="M1681.52,184.31c0-7.15-2.01-9.16-9.16-9.16,7.15,0,9.16-2.01,9.16-9.16,0,7.15,2.01,9.16,9.16,9.16-7.15,0-9.16,2.01-9.16,9.16Z"/>
        <animate attributeType="auto" attributeName="opacity" dur="1.2s" values="0.2;1;0.2" repeatCount="indefinite" begin=".6s"/>
    </g>
    <g>
      <path class="cls-yellow" d="M608.78,45.75c0-10.72-3.02-13.74-13.74-13.74,10.72,0,13.74-3.02,13.74-13.74,0,10.72,3.02,13.74,13.74,13.74-10.72,0-13.74,3.02-13.74,13.74Z"/>
      <path class="cls-yellow" d="M311.8,27.47c0-10.72-3.02-13.74-13.74-13.74,10.72,0,13.74-3.02,13.74-13.74,0,10.72,3.02,13.74,13.74,13.74-10.72,0-13.74,3.02-13.74,13.74Z"/>
      <path class="cls-yellow" d="M388.67,140.75c0-8.34-2.35-10.68-10.68-10.68,8.34,0,10.68-2.35,10.68-10.68,0,8.34,2.35,10.68,10.68,10.68-8.34,0-10.68,2.35-10.68,10.68Z"/>
      <path class="cls-yellow" d="M94.57,171.06c-.2-10.72-3.27-13.68-13.99-13.48,10.72-.2,13.68-3.27,13.48-13.99,.2,10.72,3.27,13.68,13.99,13.48-10.72,.2-13.68,3.27-13.48,13.99Z"/>
      <path class="cls-yellow" d="M1337.21,44.49c-.19-10.06-3.07-12.84-13.13-12.66,10.06-.19,12.84-3.07,12.66-13.13,.19,10.06,3.07,12.84,13.13,12.66-10.06,.19-12.84,3.07-12.66,13.13Z"/>
      <path class="cls-yellow" d="M1579.18,138.06c-.22-11.93-3.64-15.23-15.57-15.01,11.93-.22,15.23-3.64,15.01-15.57,.22,11.93,3.64,15.23,15.57,15.01-11.93,.22-15.23,3.64-15.01,15.57Z"/>
      <path class="cls-yellow" d="M1662.94,41.96c-.22-11.93-3.64-15.23-15.57-15.01,11.93-.22,15.23-3.64,15.01-15.57,.22,11.93,3.64,15.23,15.57,15.01-11.93,.22-15.23,3.64-15.01,15.57Z"/>
      <path class="cls-yellow" d="M1329.57,165.22c-.18-10.02-3.06-12.79-13.08-12.61,10.02-.18,12.79-3.06,12.61-13.08,.18,10.02,3.06,12.79,13.08,12.61-10.02,.18-12.79,3.06-12.61,13.08Z"/>
      <path class="cls-yellow" d="M1830.86,172.62c-.13-6.86-2.09-8.76-8.95-8.63,6.86-.13,8.75-2.09,8.63-8.95,.13,6.86,2.09,8.75,8.95,8.63-6.86,.13-8.76,2.09-8.63,8.95Z"/>
      <animate attributeType="auto" attributeName="opacity" dur="1.2s" values="0.2;1;0.2" repeatCount="indefinite" begin="0"/>
    </g>
  </g>
</svg>