<svg xmlns="http://www.w3.org/2000/svg" viewBox="0 0 67.69 63.83"><defs><style>.cls-1{fill:#f8efbd}.cls-2{fill:#f4e492;opacity:.29}.cls-3{opacity:.43}.cls-4{fill:#fdfaed}</style></defs><title>home-sun</title><g id="圖層_2" data-name="圖層 2"><g id="首頁"><ellipse class="cls-1" cx="34" cy="31.22" rx="20.34" ry="19.85" transform="translate(-1.17 1.32) rotate(-2.19)"/><path class="cls-1" d="M22.55 1.25a1.06 1.06.0 0 0-.8.61c-1.1 2 2.68 7.19 3.39 7.53A.42.42.0 0 0 25.6 9C25.71 8.34 24.29 1.18 22.55 1.25z"/><path class="cls-1" d="M36.23.0a.91.91.0 0 0-.35.09c-2.34 1-.47 6.76-.09 8.89a.5.5.0 0 0 .27.39c.83.38 1-2.14 1.16-3.08C37.46 4.54 38-.07 36.23.0z"/><path class="cls-1" d="M12.86 9.54c-1-1.33-2.14-2.76-3.64-2.14a.89.89.0 0 0-.29.22c-1 1.23 2 3.47 2.69 4.07a27.66 27.66.0 0 0 2.47 1.83c.27.17 1.88 1.1 1.27-.16A28.48 28.48.0 0 0 12.86 9.54z"/><path class="cls-1" d="M9.43 19.79C7.81 19.13 5.11 17.9 3.27 18S.66 19.79 2.6 20.42c1.26.42 7.38 1.09 7.87.62.07-.07.11-.08.15-.15C10.93 20.38 10.11 20.07 9.43 19.79z"/><path class="cls-1" d="M8.17 28.89a21 21 0 0 0-6-1.26c-2.11.08-3 1.29-1.21 2.11 1 .47 2 .52 4.35.43a10.81 10.81.0 0 0 2.78-.42C8.58 29.6 8.54 29 8.17 28.89z"/><path class="cls-1" d="M9.93 36S7 36.8 6 37.19c-1.08.44-3.92 1.86-3.6 3.08.22.84 1.28.81 1.3.81 2-.11 5.18-3.22 6.4-4.28A.42.42.0 0 0 9.93 36z"/><path class="cls-1" d="M14.53 44.32c-2 1.76-4.55 2.76-6.14 5.08-1 1.54.0 2.55 1.26 1.87 1.46-.8 3.18-3.12 4.57-5a8.68 8.68.0 0 0 1.09-1.5C15.51 44.26 15.06 43.86 14.53 44.32z"/><path class="cls-1" d="M20.5 49.79a11.67 11.67.0 0 0-1.93 2.44c-.87 1.16-2.6 3.33-2.85 4.9-.2 1.28 1 1.88 1.81 1.12 1-.91 1.52-2.57 2-3.84.27-.77.52-1.56.76-2.35a7.88 7.88.0 0 0 .63-2C20.85 49.71 20.7 49.67 20.5 49.79z"/><path class="cls-1" d="M30.06 53.2a.53.53.0 0 0-.41.19c-.37.67-2.52 5.7-2.46 8.15.0 1.7 1.06 2.31 1.67 1.94-.23.14 1.33-.41 1.44-4.28a30.84 30.84.0 0 1 .17-5.55A.41.41.0 0 0 30.06 53.2z"/><path class="cls-1" d="M40.65 55.46c-.73-1.22-.66-1.4-1-1.39a.42.42.0 0 0-.36.55c0 .22 1.25 6.76 2.39 8.5.67 1 1.53.86 2 0 .84-1.59-1.7-5.58-2.63-7.14z"/><path class="cls-1" d="M50.74 51.16c-2.05-1.33-1.84-1.32-2.08-1.31a.52.52.0 0 0-.48.41c0 .25.0.11 1.29 2.12 1.06 1.66 3 4.73 4.73 5.33 1.16.4 1.7-.17 1.56-1.1C55.39 54.2 52.67 52.4 50.74 51.16z"/><path class="cls-1" d="M59.31 42.81c-.87-.27-3.3-.89-3.33-.89h0a.41.41.0 0 0-.17.75 14 14 0 0 0 5.72 3.71C64.44 47.16 65.16 44.57 59.31 42.81z"/><path class="cls-1" d="M67.11 31c-.89-.65-2.74-.64-3.84-.6-1.72.06-3.06.41-4.73.48-.48.0-.58.0-.74.15a.46.46.0 0 0 .16.67c1.78.57 9.24 2.46 9.71.51A1.37 1.37.0 0 0 67.11 31z"/><path class="cls-1" d="M61.73 17.12c-2.35.09-5.29 2.68-7 4.21a.42.42.0 0 0 .15.73c.28.11.31-.09 1.58-.43h0c1.93-.42 4.69-.84 6-2.15S63.36 17.06 61.73 17.12z"/><path class="cls-1" d="M50.73 4.1c-2 .08-3.5 6.43-3.88 8.31a.42.42.0 0 0 .74.34A48.65 48.65.0 0 0 50.5 8.68c.75-1.09 2-3 1.23-4.08a1.25 1.25.0 0 0-1-.5z"/><path class="cls-2" d="M54.32 30.44c.42 11-8.35 20-19.57 20.62-3.85.2 10.22-9.45 9.8-20.41S30.32 11.78 33.24 11.38C44.37 9.86 53.9 19.48 54.32 30.44z"/><g class="cls-3"><circle class="cls-4" cx="43.55" cy="33.35" r="6.87"/><circle class="cls-4" cx="30.22" cy="42.29" r="4.58"/><circle class="cls-4" cx="40.47" cy="20.58" r="3.23"/></g></g></g></svg>