<svg xmlns="http://www.w3.org/2000/svg" viewBox="0 0 419.67 184.65"><defs><style>.cls-1,.cls-3{fill:#fff}.cls-1,.cls-4{stroke:#4d3224;stroke-linecap:round;stroke-linejoin:round;stroke-width:2px}.cls-2{fill:#d1d1cf;opacity:.5}.cls-4{fill:#d75968}.cls-5{fill:#4d3224}</style></defs><title>big-title</title><g id="圖層_2" data-name="圖層 2"><g id="首頁"><path class="cls-1" d="M245.02 182.52H259.87L261.24 166.22H246.39L245.02 182.52z"/><path class="cls-1" d="M287.24 182.52H302.08L303.45 166.22H288.61L287.24 182.52z"/><path class="cls-1" d="M308.35 182.52H323.19L324.56 166.22H309.72L308.35 182.52z"/><path class="cls-1" d="M329.45 182.52H344.3L345.67 166.22H330.82L329.45 182.52z"/><path class="cls-1" d="M350.56 182.52H365.41L366.78 166.22H351.93L350.56 182.52z"/><path class="cls-1" d="M225.29 166.2 223.91 182.52H238.76L240.13 166.22H231.57L225.29 166.2z"/><path class="cls-1" d="M266.13 182.52H280.97L282.35 166.22H267.5L266.13 182.52z"/><path class="cls-1" d="M202.8 182.52H217.65L219.02 166.2H218.09V166.22H204.18L202.8 182.52z"/><path class="cls-1" d="M100.34 61.83 114.85 35.39 185.31 35.74 186.34 20.69 123.01 20.37 131.67 4.5 113.64 4.43 82.32 61.76 100.34 61.83z"/><path class="cls-1" d="M240 5.15l-4.5 65.36-48.81-26.9v-.49l-.52.22-.4-.22v.39L74.05 90 75.3 71.74l-29.82-.12 5.91-24.35 29.37.11 1-15.05L54 32.22 56.13 1.07 39.22 1 37.07 32.16 2 32.05 1 47.1l34.37.1-33 136 16 .06L41.76 86.87 58 86.94l-5.46 79.27-18.47-.08-1 15.05 34.72.14 5.1-74.12 38.63-14.75-6.27 91.14 16.47.06 6.83-99.19L134 81.94 172 182h25.08l1.38-16.3H183.8l-16.92-43.59-6.79-17.83L148.74 75.21 185 60.49l49.41 25.66-1 14.12H250.8l.82-12h144l-5.21 78L373 166.2 371.63 182h35.08l12-176.16zM396.69 73H332.58l.49-7.06 43.17.17 2.64-38.36-102.14-.4L274.1 65.71l42.95.17L316.56 73H252.67l3.59-52.1 144 .57zM290.88 51.57l.7-10.17 70.54.27-.7 10.18z"/><path class="cls-1" d="M180.79 101.71l-8 59.17L224.67 153.12 274.6 160.49 325.09 153.83l49.81 6.5L379.25 102.22 331.61 93.62 279.58 100.37 229.55 91.91 180.79 101.71z"/><path class="cls-2" d="M229.55 92.81 224.67 152.22 274.6 159.59 279.58 101.28 229.55 92.81z"/><path class="cls-2" d="M331.61 94.52l47.06 8.61L374.04 159.77 325.09 152.92 331.61 93.62"/><circle class="cls-3" cx="188.75" cy="91.38" r="9.94"/><path class="cls-4" d="M203.51 93c-.38-21.08-31.12-23.48-30.7.0C173 104 188 116.4 188 116.4S203.71 104 203.51 93zm-16.6 6.31a7.59 7.59.0 0 1-5.68-8.59 6.59 6.59.0 0 1 8.09-5.37A7.59 7.59.0 0 1 195 93.89 6.59 6.59.0 0 1 186.91 99.26z"/><path class="cls-5" d="M205.13 139.89l2.28-16-6.69 16h-4.87l.71-16-5.93 16h-2.82l9-24.43a8.22 8.22.0 0 0-4.16 2.91 8.32 8.32.0 0 0-1.49 5.09 6 6 0 0 0 .07 1.05 5.11 5.11.0 0 0 .14.67 2.56 2.56.0 0 0 .16.45 1.77 1.77.0 0 1 .12.28 4.62 4.62.0 0 1-2.73-.73 2.81 2.81.0 0 1-1-2.47 6.67 6.67.0 0 1 1-3.41 11.72 11.72.0 0 1 2.59-3.06 13.88 13.88.0 0 1 3.61-2.19 10.46 10.46.0 0 1 4-.83 7.81 7.81.0 0 1 2.77.49L201 132.46l7.83-18.75H214l-3.73 26.18z"/><path class="cls-5" d="M227.17 126.55l-1.95 9.07a3.85 3.85.0 0 0-.1.86.93.93.0 0 0 .26.77 1.35 1.35.0 0 0 .83.21 1.65 1.65.0 0 0 1.32-.66 4.9 4.9.0 0 0 .84-1.68h1.12a9.45 9.45.0 0 1-1.27 2.57 6.12 6.12.0 0 1-1.44 1.44 3.91 3.91.0 0 1-1.42.63 6.61 6.61.0 0 1-1.23.13 2.65 2.65.0 0 1-1.78-.58 2.74 2.74.0 0 1-.84-1.74 6.82 6.82.0 0 1-.69.91 5.2 5.2.0 0 1-.89.8 4.61 4.61.0 0 1-1.08.56 4.13 4.13.0 0 1-2.63.0 3.08 3.08.0 0 1-1.13-.74 3.46 3.46.0 0 1-.8-1.32 5.83 5.83.0 0 1-.3-2 10.53 10.53.0 0 1 .19-1.95 12.34 12.34.0 0 1 .56-2.08 12.51 12.51.0 0 1 .93-2A7.45 7.45.0 0 1 217 128a6.13 6.13.0 0 1 1.72-1.18 5 5 0 0 1 2.12-.44 5.49 5.49.0 0 1 .68.0 2 2 0 0 1 .66.19 1.58 1.58.0 0 1 .54.42 1.73 1.73.0 0 1 .31.74l.26-1.26zm-5.47 1.53a2.06 2.06.0 0 0-1.55.78 7.23 7.23.0 0 0-1.17 1.92 13.41 13.41.0 0 0-.75 2.4 10.73 10.73.0 0 0-.26 2.2 3.67 3.67.0 0 0 .14 1.19 1.63 1.63.0 0 0 .35.61.72.72.0 0 0 .43.24 2.1 2.1.0 0 0 .41.0 1.54 1.54.0 0 0 .63-.14 2.57 2.57.0 0 0 .65-.44 2.88 2.88.0 0 0 .56-.74 3.94 3.94.0 0 0 .37-1l1.28-6a.88.88.0 0 0-.06-.28 1.63 1.63.0 0 0-.19-.34 1.26 1.26.0 0 0-.32-.28A1 1 0 0 0 221.7 128.08z"/><path class="cls-5" d="M236.05 130.24c0-.91-.32-1.37-1-1.37a1.54 1.54.0 0 0-1.25.73 5.35 5.35.0 0 0-.83 1.73l-1.81 8.56h-3.84l2.82-13.34H234l-.3 1.39a4 4 0 0 1 1.68-1.23 5 5 0 0 1 1.44-.26 3.17 3.17.0 0 1 2.12.7 2.87 2.87.0 0 1 .84 2.31 8.43 8.43.0 0 1-.2 1.78c-.13.65-.28 1.29-.44 1.92s-.3 1.22-.44 1.78a6.49 6.49.0 0 0-.2 1.4 1.37 1.37.0 0 0 .23.82 1 1 0 0 0 .84.3 1.58 1.58.0 0 0 .76-.17 1.79 1.79.0 0 0 .59-.48 3.65 3.65.0 0 0 .46-.73c.15-.29.29-.61.43-1H243a11.47 11.47.0 0 1-1.2 2.63 5.89 5.89.0 0 1-1.31 1.48 3.6 3.6.0 0 1-1.29.66 4.54 4.54.0 0 1-1.16.16 3.78 3.78.0 0 1-1.48-.25 2.6 2.6.0 0 1-1-.68 2.66 2.66.0 0 1-.54-1 4.25 4.25.0 0 1-.16-1.11 7.73 7.73.0 0 1 .19-1.59c.12-.61.26-1.23.41-1.85s.29-1.23.42-1.83A8 8 0 0 0 236.05 130.24z"/><path class="cls-5" d="M255.79 121.22l-3.06 14.4a3.38 3.38.0 0 0-.11.86.93.93.0 0 0 .27.77 1.3 1.3.0 0 0 .82.21 1.65 1.65.0 0 0 1.32-.66 4.57 4.57.0 0 0 .84-1.68H257a9.46 9.46.0 0 1-1.26 2.57 6.31 6.31.0 0 1-1.44 1.44 4 4 0 0 1-1.43.63 6.44 6.44.0 0 1-1.23.13 2.6 2.6.0 0 1-1.77-.58 2.65 2.65.0 0 1-.84-1.74 7.92 7.92.0 0 1-.7.91 4.85 4.85.0 0 1-.89.8 4.61 4.61.0 0 1-1.08.56 4.13 4.13.0 0 1-2.63.0 3.16 3.16.0 0 1-1.13-.74 3.46 3.46.0 0 1-.8-1.32 5.83 5.83.0 0 1-.3-2 11.46 11.46.0 0 1 .19-1.95 13.37 13.37.0 0 1 .56-2.08 12.51 12.51.0 0 1 .93-2 7.45 7.45.0 0 1 1.34-1.69 6.27 6.27.0 0 1 1.72-1.18 5 5 0 0 1 2.12-.44 5.49 5.49.0 0 1 .68.0 2.22 2.22.0 0 1 .68.19 1.62 1.62.0 0 1 .55.42 1.5 1.5.0 0 1 .28.76l1.3-6.08zm-6.59 6.86a2 2 0 0 0-1.54.78 7 7 0 0 0-1.18 1.92 12.63 12.63.0 0 0-.74 2.4 10.82 10.82.0 0 0-.27 2.2 3.62 3.62.0 0 0 .15 1.19 1.5 1.5.0 0 0 .34.61.75.75.0 0 0 .43.24 2.1 2.1.0 0 0 .41.0 1.5 1.5.0 0 0 .63-.14 2.57 2.57.0 0 0 .65-.44 2.67 2.67.0 0 0 .56-.74 3.94 3.94.0 0 0 .38-1l1.28-6a1.49 1.49.0 0 0-.23-.65A.92.92.0 0 0 249.2 128.08z"/><path class="cls-5" d="M261.53 126.55l-1.92 9.07a2.51 2.51.0 0 0-.08.67 1.89 1.89.0 0 0 .17.81.64.64.0 0 0 .63.36 1.61 1.61.0 0 0 1.3-.66 4.72 4.72.0 0 0 .83-1.68l1.82-8.57h3.86L264.89 142a7.34 7.34.0 0 1-.84 2.32 4.86 4.86.0 0 1-1.23 1.37 4 4 0 0 1-1.4.67 6.21 6.21.0 0 1-1.39.17 3.31 3.31.0 0 1-1.17-.2 3.07 3.07.0 0 1-1.71-1.51 2.51 2.51.0 0 1-.26-1.17 3.14 3.14.0 0 1 .36-1.57 3.26 3.26.0 0 1 1-1.08 6 6 0 0 1 1.47-.75c.56-.2 1.16-.41 1.8-.6l.27-1.17a4 4 0 0 1-1.71 1.26 4.9 4.9.0 0 1-1.55.28 2.85 2.85.0 0 1-2-.76 3.13 3.13.0 0 1-.83-2.44 8.67 8.67.0 0 1 .21-1.73l1.82-8.57zm-3.18 16.76a.84.84.0 0 0 .31.58 1 1 0 0 0 .76.3 1.28 1.28.0 0 0 .85-.44 3.22 3.22.0 0 0 .72-1.64l.32-1.58a10.56 10.56.0 0 0-1.17.47 4.1 4.1.0 0 0-.93.59 2.4 2.4.0 0 0-.63.76A2 2 0 0 0 258.35 143.31z"/><path class="cls-5" d="M283.59 116.56l-2.53 11.88a4.77 4.77.0 0 0 2.49-.94 8.29 8.29.0 0 0 2-2.1 10.47 10.47.0 0 0 1.3-2.81 10.89 10.89.0 0 0 .46-3 7 7 0 0 0-.23-1.78 3.86 3.86.0 0 0-.79-1.5 4 4 0 0 0-1.53-1 6.75 6.75.0 0 0-2.48-.39 9.69 9.69.0 0 0-3.32.57 8 8 0 0 0-2.74 1.66 7.63 7.63.0 0 0-1.87 2.7 9.12 9.12.0 0 0-.7 3.68 7.7 7.7.0 0 0 .06 1.08 5.53 5.53.0 0 0 .13.68 1.48 1.48.0 0 0 .17.41 2.09 2.09.0 0 1 .17.28 4.69 4.69.0 0 1-2.79-.73 2.92 2.92.0 0 1-1-2.54 6.55 6.55.0 0 1 1.1-3.59 11.32 11.32.0 0 1 2.9-3 15.24 15.24.0 0 1 4.09-2.06 14.6 14.6.0 0 1 4.64-.76 10 10 0 0 1 3.59.58 7.67 7.67.0 0 1 2.55 1.55 6.17 6.17.0 0 1 1.51 2.24 7.32 7.32.0 0 1 .5 2.67 8.54 8.54.0 0 1-.72 3.36 9.79 9.79.0 0 1-2 3.06 10.24 10.24.0 0 1-3.24 2.22 10.49 10.49.0 0 1-4.31.85h-.18l-2.17 10.14h-5.14l4.86-22.62z"/><path class="cls-5" d="M297.13 126.42q3.36.0 3.42 4.19a1.12 1.12.0 0 0 .29.0 4.21 4.21.0 0 0 1-.14 7.32 7.32.0 0 0 1.09-.36 8.13 8.13.0 0 0 1.07-.52c.35-.19.66-.39.95-.58l.24.71a6.43 6.43.0 0 1-2 1.41 10.45 10.45.0 0 1-2.68.81 12.19 12.19.0 0 1-.72 3.36 8.88 8.88.0 0 1-1.41 2.55 6 6 0 0 1-1.95 1.61 4.94 4.94.0 0 1-2.32.56 6.28 6.28.0 0 1-1.72-.22 3.55 3.55.0 0 1-1.35-.74 3.6 3.6.0 0 1-.88-1.3 5.38 5.38.0 0 1-.32-1.95 12 12 0 0 1 .16-1.76 12.74 12.74.0 0 1 .52-2 12.59 12.59.0 0 1 .92-2.06 8.05 8.05.0 0 1 1.38-1.8 6.45 6.45.0 0 1 1.88-1.28A5.92 5.92.0 0 1 297.13 126.42zm-2 11.12a1.49 1.49.0 0 0 1-.41A4.09 4.09.0 0 0 297 136a9.2 9.2.0 0 0 .73-1.74 12.11 12.11.0 0 0 .48-2.19.82.82.0 0 1-.57-.41 1.61 1.61.0 0 1-.15-.71 1.72 1.72.0 0 1 .23-.92 1.1 1.1.0 0 1 .6-.49 2.57 2.57.0 0 0-.28-1.17.83.83.0 0 0-.73-.33 1.76 1.76.0 0 0-1.36.79 7.65 7.65.0 0 0-1.12 1.92 14.33 14.33.0 0 0-.78 2.4 10.43 10.43.0 0 0-.29 2.25 7.7 7.7.0 0 0 .06 1.08 1.69 1.69.0 0 0 .23.66.83.83.0 0 0 .43.33A2 2 0 0 0 295.16 137.54z"/><path class="cls-5" d="M307.56 126.55l-.37 1.68A11.15 11.15.0 0 1 308.8 127a3.11 3.11.0 0 1 1.64-.53 1.62 1.62.0 0 1 1.38.61 2.26 2.26.0 0 1 .47 1.39 2.19 2.19.0 0 1-.12.7 2 2 0 0 1-1 1.08 2 2 0 0 1-.84.17.91.91.0 0 1-.76-.27 1.89 1.89.0 0 1-.28-.57l-.14-.57a.34.34.0 0 0-.36-.27 1.77 1.77.0 0 0-1 .29 8.4 8.4.0 0 0-1 .77l-2.13 10.14h-3.85l2.83-13.34z"/><path class="cls-5" d="M318.5 122.34l-.91 4.21h1.6l-.21 1.07h-1.6l-1.71 8a3.85 3.85.0 0 0-.1.86.93.93.0 0 0 .26.77 1.35 1.35.0 0 0 .83.21 2 2 0 0 0 1.44-.66 4 4 0 0 0 1-1.68h1.12a9.12 9.12.0 0 1-1.31 2.6 6.25 6.25.0 0 1-1.52 1.49 4.15 4.15.0 0 1-1.5.68 5.93 5.93.0 0 1-1.27.16 2.88 2.88.0 0 1-2-.76 3.17 3.17.0 0 1-.83-2.44 8.08 8.08.0 0 1 .22-1.73l1.6-7.5h-.88l.21-1.07h.88l.8-3.68z"/><path class="cls-5" d="M328 123.89c0-.15.0-.27.0-.38s0-.22.0-.34a.77.77.0 0 0-.31-.68 1.09 1.09.0 0 0-.7-.23 1.45 1.45.0 0 0-.48.09 1.61 1.61.0 0 0-.54.34 2.57 2.57.0 0 0-.49.66 4.17 4.17.0 0 0-.36 1.1l-.45 2.1h1.94l-.18 1.07h-2L321.44 142a7.6 7.6.0 0 1-.83 2.32 4.94 4.94.0 0 1-1.2 1.37 4 4 0 0 1-1.38.67 6 6 0 0 1-1.37.17 3.27 3.27.0 0 1-1.17-.2 2.88 2.88.0 0 1-1-.59 2.81 2.81.0 0 1-.71-.92 2.52 2.52.0 0 1-.27-1.17 3.14 3.14.0 0 1 .36-1.55 3.39 3.39.0 0 1 1-1.08 7.31 7.31.0 0 1 1.45-.76c.55-.21 1.15-.42 1.79-.61l3.23-15.23a6.8 6.8.0 0 1 .84-2.32 4.63 4.63.0 0 1 1.23-1.38 4 4 0 0 1 1.4-.67 6.19 6.19.0 0 1 1.38-.17 3.61 3.61.0 0 1 1.18.2 3.26 3.26.0 0 1 1 .59 2.88 2.88.0 0 1 .7.92 2.55 2.55.0 0 1 .27 1.17 7.18 7.18.0 0 1-.08 1.1zm-13 19.42a.8.8.0 0 0 .31.58 1 1 0 0 0 .76.3 1.2 1.2.0 0 0 .84-.44 3.76 3.76.0 0 0 .68-1.64l.34-1.55a10.56 10.56.0 0 0-1.17.47 4.51 4.51.0 0 0-.92.57 2.32 2.32.0 0 0-.61.75A2 2 0 0 0 315 143.31z"/><path class="cls-5" d="M333.12 126.42q3.36.0 3.41 4.19a1.21 1.21.0 0 0 .3.0 4.28 4.28.0 0 0 1-.14 7.72 7.72.0 0 0 1.09-.36 8.79 8.79.0 0 0 1.07-.52c.35-.19.66-.39.95-.58l.24.71a6.43 6.43.0 0 1-2 1.41 10.45 10.45.0 0 1-2.68.81 12.56 12.56.0 0 1-.72 3.36 8.88 8.88.0 0 1-1.41 2.55 6 6 0 0 1-2 1.61 4.94 4.94.0 0 1-2.32.56 6.23 6.23.0 0 1-1.72-.22 3.41 3.41.0 0 1-1.35-.74 3.48 3.48.0 0 1-.88-1.3 5.38 5.38.0 0 1-.32-1.95 10.72 10.72.0 0 1 .16-1.76 12.74 12.74.0 0 1 .52-2 12.59 12.59.0 0 1 .92-2.06 7.77 7.77.0 0 1 1.38-1.8 6.32 6.32.0 0 1 1.88-1.28A5.92 5.92.0 0 1 333.12 126.42zm-2 11.12a1.49 1.49.0 0 0 1-.41A4.09 4.09.0 0 0 333 136a9.2 9.2.0 0 0 .73-1.74 14.08 14.08.0 0 0 .48-2.19.79.79.0 0 1-.57-.41 1.61 1.61.0 0 1-.15-.71 1.72 1.72.0 0 1 .23-.92 1.1 1.1.0 0 1 .6-.49 2.57 2.57.0 0 0-.28-1.17.83.83.0 0 0-.74-.33 1.78 1.78.0 0 0-1.36.79 8 8 0 0 0-1.12 1.92 14.31 14.31.0 0 0-.77 2.4 9.84 9.84.0 0 0-.29 2.25 7.7 7.7.0 0 0 .06 1.08 1.69 1.69.0 0 0 .23.66.83.83.0 0 0 .43.33A2 2 0 0 0 331.15 137.54z"/><path class="cls-5" d="M344.7 121.22l-3.07 14.4a3.9 3.9.0 0 0-.11.86.93.93.0 0 0 .27.77 1.33 1.33.0 0 0 .83.21 2 2 0 0 0 1.44-.66 4 4 0 0 0 1-1.68h1.12a9.39 9.39.0 0 1-1.31 2.6 6.43 6.43.0 0 1-1.52 1.49 4.27 4.27.0 0 1-1.51.68 5.85 5.85.0 0 1-1.26.16 2.88 2.88.0 0 1-2-.76 3.17 3.17.0 0 1-.83-2.44 8.67 8.67.0 0 1 .21-1.73l2.86-13.37z"/><path class="cls-5" d="M350.67 126.55l-1.92 9.07a3.85 3.85.0 0 0-.1.86.93.93.0 0 0 .26.77 1.35 1.35.0 0 0 .83.21 2 2 0 0 0 1.44-.66 3.88 3.88.0 0 0 1-1.68h1.12a9.12 9.12.0 0 1-1.31 2.6 6.25 6.25.0 0 1-1.52 1.49 4.15 4.15.0 0 1-1.5.68 5.93 5.93.0 0 1-1.27.16 2.88 2.88.0 0 1-2-.76 3.17 3.17.0 0 1-.83-2.44 8.77 8.77.0 0 1 .22-1.73l1.81-8.57zm-3.3-3.54a2.08 2.08.0 0 1 .61-1.51 2 2 0 0 1 1.49-.63 2.15 2.15.0 0 1 2.14 2.14 2 2 0 0 1-.63 1.49 2.08 2.08.0 0 1-1.51.61 2.08 2.08.0 0 1-2.1-2.1z"/><path class="cls-5" d="M359.08 126.42c2.06.0 3.19 1.17 3.38 3.49a1.65 1.65.0 0 0 .62-.31 4.26 4.26.0 0 0 .52-.52c.15-.19.28-.37.4-.55l.28-.45h.85c-.26.56-.61 1.2-1 1.89a4.8 4.8.0 0 1-1.67 1.65 12.81 12.81.0 0 1-.65 3.51 9.43 9.43.0 0 1-1.41 2.66 6.14 6.14.0 0 1-2 1.68 5.06 5.06.0 0 1-2.37.58 6.18 6.18.0 0 1-1.72-.22 3.41 3.41.0 0 1-1.35-.74 3.37 3.37.0 0 1-.88-1.3 5.17 5.17.0 0 1-.32-1.95 10.72 10.72.0 0 1 .16-1.76 11.76 11.76.0 0 1 .52-2 12.59 12.59.0 0 1 .92-2.06 8 8 0 0 1 1.37-1.8 6.45 6.45.0 0 1 1.88-1.28A5.93 5.93.0 0 1 359.08 126.42zm-2 11.12a1.52 1.52.0 0 0 1-.41A3.9 3.9.0 0 0 359 136a9.08 9.08.0 0 0 .74-1.73 13.57 13.57.0 0 0 .48-2.17q-.72-.2-.72-1.23a1.72 1.72.0 0 1 .22-.92 1.1 1.1.0 0 1 .6-.49 2.2 2.2.0 0 0-.28-1.1.83.83.0 0 0-.73-.32 1.78 1.78.0 0 0-1.36.79 7.65 7.65.0 0 0-1.12 1.92 14.31 14.31.0 0 0-.77 2.4 9.9 9.9.0 0 0-.3 2.25 6.26 6.26.0 0 0 .07 1.08 1.55 1.55.0 0 0 .23.66.8.8.0 0 0 .42.33A2 2 0 0 0 357.1 137.54z"/></g></g></svg>