<?xml version="1.0" encoding="UTF-8"?>
<svg id="_圖層_2" data-name="圖層 2" xmlns="http://www.w3.org/2000/svg" viewBox="0 0 49.39 35.3">

  <g id="menu">
    <g>
      <path class="cls-1" d="M35.16,3.07c1.34-.62,2.83-.87,4.34-.84,1.5,.03,3.05,.42,4.39,1.24,1.32,.83,2.43,2.08,2.96,3.52,.37,.68,.43,1.45,.61,2.17,.09,.74,.08,1.48,.06,2.21-.29-.69-.47-1.38-.74-2.03l-.44-.95c-.08-.15-.13-.32-.21-.47l-.28-.43c-.66-1.18-1.61-2.13-2.72-2.81-1.1-.7-2.4-1.11-3.75-1.35-1.36-.22-2.77-.3-4.24-.26Z"/>
      <path class="cls-1" d="M40.01,.48c.92-.36,1.92-.51,2.92-.47,1,.04,2.02,.31,2.91,.85,.87,.55,1.61,1.36,1.98,2.31,.25,.45,.31,.96,.44,1.44,.06,.49,.09,.99,.1,1.48-.17-.47-.27-.94-.44-1.39-.21-.43-.33-.89-.6-1.28-.44-.82-1.09-1.49-1.86-1.96-.76-.49-1.66-.76-2.59-.9-.93-.13-1.89-.17-2.87-.08Z"/>
      <g>
        <path class="cls-1" d="M21.14,34.91c.01-.91,0-1.82,0-2.72,0-.08,.1-.25-.11-.25,0,0,0,0,0,0,.21,0,.11,.17,.11,.25,0,.91,.01,1.82,0,2.72,0,.05,0,.08,0,.12,0,0,0,0,0,0,0-.04-.01-.07,0-.12Z"/>
        <path class="cls-1" d="M20.9,31.94c-.08-.04-.16-.03-.21,.06,.05-.09,.12-.09,.21-.06Z"/>
        <path class="cls-1" d="M48.86,20.75s0,0,0,0c0-.01-.01-.03-.02-.04-.09-.27-.19-.54-.31-.79-.01-.03-.03-.06-.05-.1-.1-.22-.21-.44-.33-.65-.03-.05-.06-.11-.09-.16-.27-.47-.58-.92-.93-1.32-.04-.05-.08-.1-.13-.15-.14-.16-.29-.32-.45-.47-.04-.04-.07-.08-.11-.11-.19-.18-.38-.34-.59-.5-.04-.03-.09-.06-.13-.1-.17-.12-.34-.24-.51-.35-.06-.04-.12-.08-.18-.11-.22-.13-.44-.25-.67-.36,0-.03,0-.06,0-.09,0-5.05-3.65-9.14-8.15-9.14-.88,0-1.72,.16-2.52,.45-2.15-3.39-5.67-5.6-9.66-5.6-4.25,0-7.97,2.52-10.07,6.29-.55-.08-1.12-.14-1.69-.14C5.51,7.3,0,13.47,0,21.09c0,.26,0,.53,.02,.79H.02s0,0,0,0c.37,7.25,5.72,13,12.28,13,2.04,0,3.96-.57,5.65-1.55,.9,.76,1.94,1.33,3.06,1.66,.02-1.02,.02-2.04,0-3.06-.04,0-.08,0-.12,0-.06,.06-.12,.1-.21,.06-.81,.08-1.62,.15-2.42-.05-1.42-.36-2.43-1.19-3.05-2.53-.4-.87-.94-1.67-1.55-2.42-.19-.23-.51-.32-.71-.56-.08-.09-.21-.16-.17-.29,.04-.15,.2-.14,.33-.16,1.3-.11,2.22,.51,2.86,1.57,.59,.97,1.36,1.69,2.48,1.99,.79,.21,1.58,.16,2.36-.08,.18-.06,.28-.14,.3-.36,.06-.81,.23-1.58,.79-2.27-.21-.04-.38-.08-.56-.1-1.38-.21-2.66-.68-3.77-1.53-1.24-.95-2.01-2.21-2.25-3.77-.21-1.36-.13-2.72,.05-4.08,.14-1.05,.43-2.04,1.18-2.82,.27-.27,.29-.49,.17-.84-.4-1.16-.29-2.32,.07-3.47,.06-.21,.16-.28,.4-.22,.88,.21,1.55,.73,2.16,1.35,.3,.3,.55,.64,.8,.97,.07,.1,.12,.15,.25,.05,.47-.37,1.03-.49,1.6-.57,1.64-.23,3.28-.24,4.91,0,.55,.08,1.1,.18,1.55,.52,.21,.16,.3,.07,.42-.1,.44-.64,.97-1.18,1.59-1.63,.4-.29,.84-.48,1.32-.6,.21-.05,.29,0,.36,.19,.44,1.25,.51,2.49,.01,3.74-.06,.16-.1,.27,.05,.4,.8,.75,1.17,1.71,1.33,2.77,.19,1.29,.3,2.58,.15,3.88-.25,2.19-1.36,3.79-3.3,4.84,0,0,0,0,0,0-.02,.08-.06,.12-.15,.08-.05,.03-.1,.05-.15,.07,0,0-.01,0-.02,0-.11,.12-.24,.19-.4,.18,0,0,0,0,0,0-.05,.02-.11,.03-.16,.05-.04-.01-.07,0-.1,.01,.03,0,.05-.01,.09,0-.03,.07-.07,.12-.16,.08,0,0,0,0,0,0-.03,0-.06,.02-.09,.02-.26,.04-.52,.07-.74,.23-.03,0-.07,.01-.1,.02-.19,0-.38,0-.54,.12-.14,.02-.28,.04-.42,.06-.11,0-.23,0-.33,.03-.05,.02-.07,.05-.06,.08,0-.02,0-.04,.05-.06,.1-.04,.22-.03,.33-.03-.07,.11-.24,.03-.29,.16h0s0,.02,0,.03c.08,.02,.12,.08,.12,.15,0,0,0,0,.01,0,.05,.1,.1,.21,.16,.31,0,.01,0,.03,0,.04,.09,.08,.12,.18,.13,.29,0,0,0,.02,.02,.03,.01,.06,.03,.11,.04,.17,0,.02,0,.03,0,.05,.1,.13,.15,.28,.12,.44,0,.01,0,.02,.01,.03,0,.04,.01,.08,.02,.11,0,0,0,.02,0,.03,.06,.05,.08,.11,.04,.18,0,0,0,0,0,.01,0,.07,0,.14,0,.2,.14,.12,.08,.28,.08,.42v4.27c.33-.24,.65-.5,.95-.79,1.52,1.47,3.5,2.37,5.67,2.37s4.08-.87,5.6-2.3c.37,.06,.75,.1,1.14,.1,4.5,0,8.15-4.09,8.15-9.14,0-1.13-.19-2.22-.52-3.22Zm-21.04,5.99c.16-.12,.35-.12,.54-.12-.16,.13-.34,.14-.54,.12Zm.64-.14c.22-.16,.48-.19,.74-.23-.24,.1-.46,.25-.74,.23Z"/>
      </g>
    </g>
  </g>
</svg>