<?xml version="1.0" encoding="UTF-8"?>
<svg id="_圖層_2" data-name="圖層 2" xmlns="http://www.w3.org/2000/svg" viewBox="0 0 65.52 46.83">
  <g id="menu">
    <g>
      <path class="cls-1" d="M46.65,4.07c1.78-.82,3.76-1.15,5.75-1.12,2,.03,4.05,.56,5.83,1.65,.44,.29,.89,.55,1.25,.93,.37,.37,.8,.68,1.11,1.1l.9,1.26c.29,.42,.45,.92,.67,1.38,.49,.9,.57,1.93,.81,2.88,.11,.98,.11,1.97,.09,2.93-.39-.91-.63-1.83-.98-2.69l-.58-1.26c-.1-.2-.17-.42-.28-.62l-.37-.57c-.88-1.57-2.14-2.83-3.61-3.73-1.46-.93-3.18-1.47-4.97-1.79-1.8-.29-3.68-.4-5.62-.34Z"/>
      <path class="cls-1" d="M53.07,.63c1.22-.47,2.54-.68,3.87-.63,1.33,.05,2.69,.41,3.86,1.13,1.16,.73,2.13,1.81,2.62,3.07,.33,.59,.41,1.27,.59,1.91,.08,.65,.12,1.31,.14,1.96-.23-.62-.35-1.25-.58-1.84-.28-.57-.44-1.19-.8-1.69-.58-1.09-1.44-1.98-2.46-2.6-1.01-.64-2.2-1.01-3.43-1.2-1.23-.17-2.51-.22-3.81-.1Z"/>
      <path class="cls-1" d="M64.82,27.52s0,0,0,0c0-.02-.01-.04-.02-.05-.12-.36-.26-.71-.41-1.05-.02-.04-.04-.09-.06-.13-.13-.3-.28-.58-.44-.86-.04-.07-.08-.14-.12-.21-.36-.63-.77-1.21-1.23-1.76-.06-.07-.11-.13-.17-.19-.19-.22-.39-.42-.59-.62-.05-.05-.1-.1-.15-.15-.25-.23-.51-.46-.78-.67-.06-.04-.12-.08-.17-.13-.22-.16-.45-.32-.68-.47-.08-.05-.16-.1-.24-.15-.29-.17-.59-.34-.89-.48,0-.04,0-.08,0-.12,0-6.69-4.84-12.12-10.81-12.12-1.17,0-2.29,.21-3.34,.6-2.85-4.49-7.52-7.43-12.82-7.43-5.64,0-10.58,3.34-13.35,8.34-.74-.11-1.48-.19-2.24-.19C7.31,9.68,0,17.87,0,27.98c0,.35,.01,.7,.03,1.04H.03s0,0,0,0c.49,9.62,7.59,17.25,16.29,17.25,2.71,0,5.25-.75,7.5-2.06,1.93,1.63,4.32,2.61,6.92,2.61,2.88,0,5.5-1.19,7.52-3.14,2.02,1.95,4.64,3.14,7.52,3.14s5.42-1.15,7.42-3.05c.49,.08,1,.13,1.51,.13,5.97,0,10.81-5.43,10.81-12.12,0-1.5-.25-2.94-.7-4.27Zm-27-10.65h-1.92c-1.9,0-2.49,1.18-2.49,2.38v2.86h4.23l-.68,4.41h-3.56v10.66h-4.77v-10.66h-3.87v-4.41h3.87v-3.36c0-3.82,2.28-5.94,5.76-5.94,1.67,0,3.42,.3,3.42,.3v3.75Z"/>
    </g>
  </g>
</svg>